# Tiled2Unity generated file. Do not modify by hand.
# Wavefront file for 'Llanuras-del-Origen---Zona-1_mesh_0002.obj'

# Vertices (Count = 32)
v -3 -3 0
v -4 -3 0
v -4 -2 0
v -3 -2 0
v -3 -4 0
v -4 -4 0
v -4 -3 0
v -3 -3 0
v -2 -5 0
v -3 -5 0
v -3 -4 0
v -2 -4 0
v -17 -5 0
v -18 -5 0
v -18 -4 0
v -17 -4 0
v -2 -6 0
v -3 -6 0
v -3 -5 0
v -2 -5 0
v -3 -7 0
v -4 -7 0
v -4 -6 0
v -3 -6 0
v -18 -12 0
v -19 -12 0
v -19 -11 0
v -18 -11 0
v -18 -15 0
v -19 -15 0
v -19 -14 0
v -18 -14 0

# Texture cooridinates (Count = 10)
vt 0.075 0.6388889
vt 0.1 0.6388889
vt 0.1 0.6666666
vt 0.075 0.6666666
vt 0.025 0.75
vt 0.05 0.75
vt 0.05 0.7777778
vt 0.025 0.7777778
vt 0 0.75
vt 0 0.7777778

# Normal
vn 0 0 -1

# Mesh description
g Llanuras-del-Origen---Zona-1_mesh_0002

# Faces
f 1/1/1 2/2/1 3/3/1 4/4/1
f 5/1/1 6/2/1 7/3/1 8/4/1
f 9/1/1 10/2/1 11/3/1 12/4/1
f 13/5/1 14/6/1 15/7/1 16/8/1
f 17/1/1 18/2/1 19/3/1 20/4/1
f 21/5/1 22/6/1 23/7/1 24/8/1
f 25/9/1 26/5/1 27/8/1 28/10/1
f 29/9/1 30/5/1 31/8/1 32/10/1

