# Tiled2Unity generated file. Do not modify by hand.
# Wavefront file for 'Llanuras-del-Origen---Entrada-Dungeon_mesh_0005.obj'

# Vertices (Count = 32)
v -18 -15 0
v -19 -15 0
v -19 -14 0
v -18 -14 0
v -19 -15 0
v -20 -15 0
v -20 -14 0
v -19 -14 0
v -18 -16 0
v -19 -16 0
v -19 -15 0
v -18 -15 0
v -19 -16 0
v -20 -16 0
v -20 -15 0
v -19 -15 0
v -18 -17 0
v -19 -17 0
v -19 -16 0
v -18 -16 0
v -19 -17 0
v -20 -17 0
v -20 -16 0
v -19 -16 0
v -18 -18 0
v -19 -18 0
v -19 -17 0
v -18 -17 0
v -19 -18 0
v -20 -18 0
v -20 -17 0
v -19 -17 0

# Texture cooridinates (Count = 10)
vt 0.9 0.5277778
vt 0.925 0.5277778
vt 0.925 0.5555556
vt 0.9 0.5555556
vt 0.875 0.75
vt 0.9 0.75
vt 0.9 0.7777778
vt 0.875 0.7777778
vt 0.925 0.75
vt 0.925 0.7777778

# Normal
vn 0 0 -1

# Mesh description
g Llanuras-del-Origen---Entrada-Dungeon_mesh_0005

# Faces
f 1/1/1 2/2/1 3/3/1 4/4/1
f 5/1/1 6/2/1 7/3/1 8/4/1
f 9/5/1 10/6/1 11/7/1 12/8/1
f 13/6/1 14/9/1 15/10/1 16/7/1
f 17/5/1 18/6/1 19/7/1 20/8/1
f 21/6/1 22/9/1 23/10/1 24/7/1
f 25/1/1 26/2/1 27/3/1 28/4/1
f 29/1/1 30/2/1 31/3/1 32/4/1

