# Tiled2Unity generated file. Do not modify by hand.
# Wavefront file for 'Pueblo---Jardin-Jugador_mesh_0006.obj'

# Vertices (Count = 216)
v 0 -1 0
v -1 -1 0
v -1 0 0
v 0 0 0
v -1 -1 0
v -2 -1 0
v -2 0 0
v -1 0 0
v -2 -1 0
v -3 -1 0
v -3 0 0
v -2 0 0
v -3 -1 0
v -4 -1 0
v -4 0 0
v -3 0 0
v -4 -1 0
v -5 -1 0
v -5 0 0
v -4 0 0
v -5 -1 0
v -6 -1 0
v -6 0 0
v -5 0 0
v -9 -1 0
v -10 -1 0
v -10 0 0
v -9 0 0
v -10 -1 0
v -11 -1 0
v -11 0 0
v -10 0 0
v -11 -1 0
v -12 -1 0
v -12 0 0
v -11 0 0
v -12 -1 0
v -13 -1 0
v -13 0 0
v -12 0 0
v -13 -1 0
v -14 -1 0
v -14 0 0
v -13 0 0
v -14 -1 0
v -15 -1 0
v -15 0 0
v -14 0 0
v 0 -2 0
v -1 -2 0
v -1 -1 0
v 0 -1 0
v -1 -2 0
v -2 -2 0
v -2 -1 0
v -1 -1 0
v -14 -2 0
v -15 -2 0
v -15 -1 0
v -14 -1 0
v 0 -3 0
v -1 -3 0
v -1 -2 0
v 0 -2 0
v -14 -3 0
v -15 -3 0
v -15 -2 0
v -14 -2 0
v 0 -4 0
v -1 -4 0
v -1 -3 0
v 0 -3 0
v -14 -4 0
v -15 -4 0
v -15 -3 0
v -14 -3 0
v 0 -5 0
v -1 -5 0
v -1 -4 0
v 0 -4 0
v -14 -5 0
v -15 -5 0
v -15 -4 0
v -14 -4 0
v 0 -6 0
v -1 -6 0
v -1 -5 0
v 0 -5 0
v -14 -6 0
v -15 -6 0
v -15 -5 0
v -14 -5 0
v 0 -7 0
v -1 -7 0
v -1 -6 0
v 0 -6 0
v -14 -7 0
v -15 -7 0
v -15 -6 0
v -14 -6 0
v 0 -8 0
v -1 -8 0
v -1 -7 0
v 0 -7 0
v -14 -8 0
v -15 -8 0
v -15 -7 0
v -14 -7 0
v 0 -9 0
v -1 -9 0
v -1 -8 0
v 0 -8 0
v -14 -9 0
v -15 -9 0
v -15 -8 0
v -14 -8 0
v 0 -10 0
v -1 -10 0
v -1 -9 0
v 0 -9 0
v -14 -10 0
v -15 -10 0
v -15 -9 0
v -14 -9 0
v 0 -11 0
v -1 -11 0
v -1 -10 0
v 0 -10 0
v -14 -11 0
v -15 -11 0
v -15 -10 0
v -14 -10 0
v 0 -12 0
v -1 -12 0
v -1 -11 0
v 0 -11 0
v -14 -12 0
v -15 -12 0
v -15 -11 0
v -14 -11 0
v 0 -13 0
v -1 -13 0
v -1 -12 0
v 0 -12 0
v -14 -13 0
v -15 -13 0
v -15 -12 0
v -14 -12 0
v 0 -14 0
v -1 -14 0
v -1 -13 0
v 0 -13 0
v -14 -14 0
v -15 -14 0
v -15 -13 0
v -14 -13 0
v 0 -15 0
v -1 -15 0
v -1 -14 0
v 0 -14 0
v -1 -15 0
v -2 -15 0
v -2 -14 0
v -1 -14 0
v -2 -15 0
v -3 -15 0
v -3 -14 0
v -2 -14 0
v -3 -15 0
v -4 -15 0
v -4 -14 0
v -3 -14 0
v -4 -15 0
v -5 -15 0
v -5 -14 0
v -4 -14 0
v -5 -15 0
v -6 -15 0
v -6 -14 0
v -5 -14 0
v -6 -15 0
v -7 -15 0
v -7 -14 0
v -6 -14 0
v -7 -15 0
v -8 -15 0
v -8 -14 0
v -7 -14 0
v -8 -15 0
v -9 -15 0
v -9 -14 0
v -8 -14 0
v -9 -15 0
v -10 -15 0
v -10 -14 0
v -9 -14 0
v -10 -15 0
v -11 -15 0
v -11 -14 0
v -10 -14 0
v -11 -15 0
v -12 -15 0
v -12 -14 0
v -11 -14 0
v -12 -15 0
v -13 -15 0
v -13 -14 0
v -12 -14 0
v -13 -15 0
v -14 -15 0
v -14 -14 0
v -13 -14 0
v -14 -15 0
v -15 -15 0
v -15 -14 0
v -14 -14 0

# Texture cooridinates (Count = 24)
vt 0.05 0.5277778
vt 0.075 0.5277778
vt 0.075 0.5555556
vt 0.05 0.5555556
vt 0.1 0.4444444
vt 0.125 0.4444444
vt 0.125 0.4722222
vt 0.1 0.4722222
vt 0.15 0.4444444
vt 0.15 0.4722222
vt 0.15 0.5
vt 0.175 0.5
vt 0.175 0.5277778
vt 0.15 0.5277778
vt 0.125 0.5
vt 0.125 0.5277778
vt 0.075 0.4444444
vt 0.075 0.4722222
vt 0.175 0.4722222
vt 0.2 0.4722222
vt 0.2 0.5
vt 0.1 0.5277778
vt 0.125 0.5555556
vt 0.1 0.5555556

# Normal
vn 0 0 -1

# Mesh description
g Pueblo---Jardin-Jugador_mesh_0006

# Faces
f 1/1/1 2/2/1 3/3/1 4/4/1
f 5/5/1 6/6/1 7/7/1 8/8/1
f 9/6/1 10/9/1 11/10/1 12/7/1
f 13/6/1 14/9/1 15/10/1 16/7/1
f 17/6/1 18/9/1 19/10/1 20/7/1
f 21/11/1 22/12/1 23/13/1 24/14/1
f 25/15/1 26/11/1 27/14/1 28/16/1
f 29/6/1 30/9/1 31/10/1 32/7/1
f 33/6/1 34/9/1 35/10/1 36/7/1
f 37/6/1 38/9/1 39/10/1 40/7/1
f 41/6/1 42/9/1 43/10/1 44/7/1
f 45/17/1 46/5/1 47/8/1 48/18/1
f 49/5/1 50/6/1 51/7/1 52/8/1
f 53/11/1 54/12/1 55/13/1 56/14/1
f 57/10/1 58/19/1 59/12/1 60/11/1
f 61/19/1 62/20/1 63/21/1 64/12/1
f 65/10/1 66/19/1 67/12/1 68/11/1
f 69/19/1 70/20/1 71/21/1 72/12/1
f 73/10/1 74/19/1 75/12/1 76/11/1
f 77/19/1 78/20/1 79/21/1 80/12/1
f 81/10/1 82/19/1 83/12/1 84/11/1
f 85/19/1 86/20/1 87/21/1 88/12/1
f 89/10/1 90/19/1 91/12/1 92/11/1
f 93/19/1 94/20/1 95/21/1 96/12/1
f 97/10/1 98/19/1 99/12/1 100/11/1
f 101/19/1 102/20/1 103/21/1 104/12/1
f 105/10/1 106/19/1 107/12/1 108/11/1
f 109/19/1 110/20/1 111/21/1 112/12/1
f 113/10/1 114/19/1 115/12/1 116/11/1
f 117/19/1 118/20/1 119/21/1 120/12/1
f 121/10/1 122/19/1 123/12/1 124/11/1
f 125/19/1 126/20/1 127/21/1 128/12/1
f 129/10/1 130/19/1 131/12/1 132/11/1
f 133/19/1 134/20/1 135/21/1 136/12/1
f 137/10/1 138/19/1 139/12/1 140/11/1
f 141/19/1 142/20/1 143/21/1 144/12/1
f 145/10/1 146/19/1 147/12/1 148/11/1
f 149/19/1 150/20/1 151/21/1 152/12/1
f 153/10/1 154/19/1 155/12/1 156/11/1
f 157/22/1 158/16/1 159/23/1 160/24/1
f 161/7/1 162/10/1 163/11/1 164/15/1
f 165/7/1 166/10/1 167/11/1 168/15/1
f 169/7/1 170/10/1 171/11/1 172/15/1
f 173/7/1 174/10/1 175/11/1 176/15/1
f 177/7/1 178/10/1 179/11/1 180/15/1
f 181/7/1 182/10/1 183/11/1 184/15/1
f 185/7/1 186/10/1 187/11/1 188/15/1
f 189/7/1 190/10/1 191/11/1 192/15/1
f 193/7/1 194/10/1 195/11/1 196/15/1
f 197/7/1 198/10/1 199/11/1 200/15/1
f 201/7/1 202/10/1 203/11/1 204/15/1
f 205/7/1 206/10/1 207/11/1 208/15/1
f 209/7/1 210/10/1 211/11/1 212/15/1
f 213/2/1 214/22/1 215/24/1 216/3/1

