# Tiled2Unity generated file. Do not modify by hand.
# Wavefront file for 'Pueblo---Jardin-Jugador_mesh_0004.obj'

# Vertices (Count = 156)
v -1 -5 0
v -2 -5 0
v -2 -4 0
v -1 -4 0
v -2 -5 0
v -3 -5 0
v -3 -4 0
v -2 -4 0
v -3 -5 0
v -4 -5 0
v -4 -4 0
v -3 -4 0
v -4 -5 0
v -5 -5 0
v -5 -4 0
v -4 -4 0
v -5 -5 0
v -6 -5 0
v -6 -4 0
v -5 -4 0
v -9 -5 0
v -10 -5 0
v -10 -4 0
v -9 -4 0
v -10 -5 0
v -11 -5 0
v -11 -4 0
v -10 -4 0
v -11 -5 0
v -12 -5 0
v -12 -4 0
v -11 -4 0
v -12 -5 0
v -13 -5 0
v -13 -4 0
v -12 -4 0
v -13 -5 0
v -14 -5 0
v -14 -4 0
v -13 -4 0
v -1 -6 0
v -2 -6 0
v -2 -5 0
v -1 -5 0
v -13 -6 0
v -14 -6 0
v -14 -5 0
v -13 -5 0
v -1 -7 0
v -2 -7 0
v -2 -6 0
v -1 -6 0
v -13 -7 0
v -14 -7 0
v -14 -6 0
v -13 -6 0
v -1 -8 0
v -2 -8 0
v -2 -7 0
v -1 -7 0
v -13 -8 0
v -14 -8 0
v -14 -7 0
v -13 -7 0
v -1 -9 0
v -2 -9 0
v -2 -8 0
v -1 -8 0
v -13 -9 0
v -14 -9 0
v -14 -8 0
v -13 -8 0
v -1 -10 0
v -2 -10 0
v -2 -9 0
v -1 -9 0
v -13 -10 0
v -14 -10 0
v -14 -9 0
v -13 -9 0
v -1 -11 0
v -2 -11 0
v -2 -10 0
v -1 -10 0
v -13 -11 0
v -14 -11 0
v -14 -10 0
v -13 -10 0
v -1 -12 0
v -2 -12 0
v -2 -11 0
v -1 -11 0
v -13 -12 0
v -14 -12 0
v -14 -11 0
v -13 -11 0
v -1 -13 0
v -2 -13 0
v -2 -12 0
v -1 -12 0
v -13 -13 0
v -14 -13 0
v -14 -12 0
v -13 -12 0
v -1 -14 0
v -2 -14 0
v -2 -13 0
v -1 -13 0
v -2 -14 0
v -3 -14 0
v -3 -13 0
v -2 -13 0
v -3 -14 0
v -4 -14 0
v -4 -13 0
v -3 -13 0
v -4 -14 0
v -5 -14 0
v -5 -13 0
v -4 -13 0
v -5 -14 0
v -6 -14 0
v -6 -13 0
v -5 -13 0
v -6 -14 0
v -7 -14 0
v -7 -13 0
v -6 -13 0
v -7 -14 0
v -8 -14 0
v -8 -13 0
v -7 -13 0
v -8 -14 0
v -9 -14 0
v -9 -13 0
v -8 -13 0
v -9 -14 0
v -10 -14 0
v -10 -13 0
v -9 -13 0
v -10 -14 0
v -11 -14 0
v -11 -13 0
v -10 -13 0
v -11 -14 0
v -12 -14 0
v -12 -13 0
v -11 -13 0
v -12 -14 0
v -13 -14 0
v -13 -13 0
v -12 -13 0
v -13 -14 0
v -14 -14 0
v -14 -13 0
v -13 -13 0

# Texture cooridinates (Count = 17)
vt 0.05 0.5
vt 0.075 0.5
vt 0.075 0.5277778
vt 0.05 0.5277778
vt 0.1 0.5
vt 0.125 0.5
vt 0.125 0.5277778
vt 0.1 0.5277778
vt 0.025 0.4444444
vt 0.05 0.4444444
vt 0.05 0.4722222
vt 0.025 0.4722222
vt 0 0.4444444
vt 0 0.4722222
vt 0.1 0.4722222
vt 0.125 0.4722222
vt 0.075 0.4722222

# Normal
vn 0 0 -1

# Mesh description
g Pueblo---Jardin-Jugador_mesh_0004

# Faces
f 1/1/1 2/2/1 3/3/1 4/4/1
f 5/5/1 6/6/1 7/7/1 8/8/1
f 9/5/1 10/6/1 11/7/1 12/8/1
f 13/5/1 14/6/1 15/7/1 16/8/1
f 17/9/1 18/10/1 19/11/1 20/12/1
f 21/13/1 22/9/1 23/12/1 24/14/1
f 25/5/1 26/6/1 27/7/1 28/8/1
f 29/5/1 30/6/1 31/7/1 32/8/1
f 33/5/1 34/6/1 35/7/1 36/8/1
f 37/2/1 38/5/1 39/8/1 40/3/1
f 41/15/1 42/16/1 43/6/1 44/5/1
f 45/15/1 46/16/1 47/6/1 48/5/1
f 49/15/1 50/16/1 51/6/1 52/5/1
f 53/15/1 54/16/1 55/6/1 56/5/1
f 57/15/1 58/16/1 59/6/1 60/5/1
f 61/15/1 62/16/1 63/6/1 64/5/1
f 65/15/1 66/16/1 67/6/1 68/5/1
f 69/15/1 70/16/1 71/6/1 72/5/1
f 73/15/1 74/16/1 75/6/1 76/5/1
f 77/15/1 78/16/1 79/6/1 80/5/1
f 81/15/1 82/16/1 83/6/1 84/5/1
f 85/15/1 86/16/1 87/6/1 88/5/1
f 89/15/1 90/16/1 91/6/1 92/5/1
f 93/15/1 94/16/1 95/6/1 96/5/1
f 97/15/1 98/16/1 99/6/1 100/5/1
f 101/15/1 102/16/1 103/6/1 104/5/1
f 105/11/1 106/17/1 107/2/1 108/1/1
f 109/5/1 110/6/1 111/7/1 112/8/1
f 113/5/1 114/6/1 115/7/1 116/8/1
f 117/5/1 118/6/1 119/7/1 120/8/1
f 121/5/1 122/6/1 123/7/1 124/8/1
f 125/5/1 126/6/1 127/7/1 128/8/1
f 129/5/1 130/6/1 131/7/1 132/8/1
f 133/5/1 134/6/1 135/7/1 136/8/1
f 137/5/1 138/6/1 139/7/1 140/8/1
f 141/5/1 142/6/1 143/7/1 144/8/1
f 145/5/1 146/6/1 147/7/1 148/8/1
f 149/5/1 150/6/1 151/7/1 152/8/1
f 153/17/1 154/15/1 155/5/1 156/2/1

