# Tiled2Unity generated file. Do not modify by hand.
# Wavefront file for 'Pueblo---Jardin-Jugador_mesh_0003.obj'

# Vertices (Count = 324)
v -2 -2 0
v -3 -2 0
v -3 -1 0
v -2 -1 0
v -3 -2 0
v -4 -2 0
v -4 -1 0
v -3 -1 0
v -10 -2 0
v -11 -2 0
v -11 -1 0
v -10 -1 0
v -11 -2 0
v -12 -2 0
v -12 -1 0
v -11 -1 0
v -12 -2 0
v -13 -2 0
v -13 -1 0
v -12 -1 0
v -13 -2 0
v -14 -2 0
v -14 -1 0
v -13 -1 0
v -2 -3 0
v -3 -3 0
v -3 -2 0
v -2 -2 0
v -3 -3 0
v -4 -3 0
v -4 -2 0
v -3 -2 0
v -11 -3 0
v -12 -3 0
v -12 -2 0
v -11 -2 0
v -12 -3 0
v -13 -3 0
v -13 -2 0
v -12 -2 0
v 0 -4 0
v -1 -4 0
v -1 -3 0
v 0 -3 0
v -14 -4 0
v -15 -4 0
v -15 -3 0
v -14 -3 0
v -14 -5 0
v -15 -5 0
v -15 -4 0
v -14 -4 0
v -14 -6 0
v -15 -6 0
v -15 -5 0
v -14 -5 0
v -3 -7 0
v -4 -7 0
v -4 -6 0
v -3 -6 0
v -4 -7 0
v -5 -7 0
v -5 -6 0
v -4 -6 0
v -5 -7 0
v -6 -7 0
v -6 -6 0
v -5 -6 0
v -9 -7 0
v -10 -7 0
v -10 -6 0
v -9 -6 0
v -10 -7 0
v -11 -7 0
v -11 -6 0
v -10 -6 0
v -11 -7 0
v -12 -7 0
v -12 -6 0
v -11 -6 0
v -14 -7 0
v -15 -7 0
v -15 -6 0
v -14 -6 0
v -3 -8 0
v -4 -8 0
v -4 -7 0
v -3 -7 0
v -4 -8 0
v -5 -8 0
v -5 -7 0
v -4 -7 0
v -5 -8 0
v -6 -8 0
v -6 -7 0
v -5 -7 0
v -9 -8 0
v -10 -8 0
v -10 -7 0
v -9 -7 0
v -10 -8 0
v -11 -8 0
v -11 -7 0
v -10 -7 0
v -11 -8 0
v -12 -8 0
v -12 -7 0
v -11 -7 0
v -14 -8 0
v -15 -8 0
v -15 -7 0
v -14 -7 0
v -3 -9 0
v -4 -9 0
v -4 -8 0
v -3 -8 0
v -4 -9 0
v -5 -9 0
v -5 -8 0
v -4 -8 0
v -5 -9 0
v -6 -9 0
v -6 -8 0
v -5 -8 0
v -9 -9 0
v -10 -9 0
v -10 -8 0
v -9 -8 0
v -10 -9 0
v -11 -9 0
v -11 -8 0
v -10 -8 0
v -11 -9 0
v -12 -9 0
v -12 -8 0
v -11 -8 0
v -14 -9 0
v -15 -9 0
v -15 -8 0
v -14 -8 0
v 0 -10 0
v -1 -10 0
v -1 -9 0
v 0 -9 0
v -3 -10 0
v -4 -10 0
v -4 -9 0
v -3 -9 0
v -4 -10 0
v -5 -10 0
v -5 -9 0
v -4 -9 0
v -5 -10 0
v -6 -10 0
v -6 -9 0
v -5 -9 0
v -9 -10 0
v -10 -10 0
v -10 -9 0
v -9 -9 0
v -10 -10 0
v -11 -10 0
v -11 -9 0
v -10 -9 0
v -11 -10 0
v -12 -10 0
v -12 -9 0
v -11 -9 0
v -14 -10 0
v -15 -10 0
v -15 -9 0
v -14 -9 0
v -3 -11 0
v -4 -11 0
v -4 -10 0
v -3 -10 0
v -4 -11 0
v -5 -11 0
v -5 -10 0
v -4 -10 0
v -5 -11 0
v -6 -11 0
v -6 -10 0
v -5 -10 0
v -9 -11 0
v -10 -11 0
v -10 -10 0
v -9 -10 0
v -10 -11 0
v -11 -11 0
v -11 -10 0
v -10 -10 0
v -11 -11 0
v -12 -11 0
v -12 -10 0
v -11 -10 0
v -14 -11 0
v -15 -11 0
v -15 -10 0
v -14 -10 0
v 0 -12 0
v -1 -12 0
v -1 -11 0
v 0 -11 0
v -3 -12 0
v -4 -12 0
v -4 -11 0
v -3 -11 0
v -4 -12 0
v -5 -12 0
v -5 -11 0
v -4 -11 0
v -5 -12 0
v -6 -12 0
v -6 -11 0
v -5 -11 0
v -9 -12 0
v -10 -12 0
v -10 -11 0
v -9 -11 0
v -10 -12 0
v -11 -12 0
v -11 -11 0
v -10 -11 0
v -11 -12 0
v -12 -12 0
v -12 -11 0
v -11 -11 0
v -14 -12 0
v -15 -12 0
v -15 -11 0
v -14 -11 0
v -3 -13 0
v -4 -13 0
v -4 -12 0
v -3 -12 0
v -4 -13 0
v -5 -13 0
v -5 -12 0
v -4 -12 0
v -5 -13 0
v -6 -13 0
v -6 -12 0
v -5 -12 0
v -9 -13 0
v -10 -13 0
v -10 -12 0
v -9 -12 0
v -10 -13 0
v -11 -13 0
v -11 -12 0
v -10 -12 0
v -11 -13 0
v -12 -13 0
v -12 -12 0
v -11 -12 0
v -14 -13 0
v -15 -13 0
v -15 -12 0
v -14 -12 0
v -14 -14 0
v -15 -14 0
v -15 -13 0
v -14 -13 0
v 0 -15 0
v -1 -15 0
v -1 -14 0
v 0 -14 0
v -1 -15 0
v -2 -15 0
v -2 -14 0
v -1 -14 0
v -2 -15 0
v -3 -15 0
v -3 -14 0
v -2 -14 0
v -3 -15 0
v -4 -15 0
v -4 -14 0
v -3 -14 0
v -4 -15 0
v -5 -15 0
v -5 -14 0
v -4 -14 0
v -5 -15 0
v -6 -15 0
v -6 -14 0
v -5 -14 0
v -6 -15 0
v -7 -15 0
v -7 -14 0
v -6 -14 0
v -7 -15 0
v -8 -15 0
v -8 -14 0
v -7 -14 0
v -8 -15 0
v -9 -15 0
v -9 -14 0
v -8 -14 0
v -9 -15 0
v -10 -15 0
v -10 -14 0
v -9 -14 0
v -10 -15 0
v -11 -15 0
v -11 -14 0
v -10 -14 0
v -11 -15 0
v -12 -15 0
v -12 -14 0
v -11 -14 0
v -12 -15 0
v -13 -15 0
v -13 -14 0
v -12 -14 0
v -13 -15 0
v -14 -15 0
v -14 -14 0
v -13 -14 0
v -14 -15 0
v -15 -15 0
v -15 -14 0
v -14 -14 0

# Texture cooridinates (Count = 36)
vt 0.075 0.6666666
vt 0.1 0.6666666
vt 0.1 0.6944444
vt 0.075 0.6944444
vt 0.225 0.8333333
vt 0.25 0.8333333
vt 0.25 0.8611111
vt 0.225 0.8611111
vt 0.05 0.6388889
vt 0.075 0.6388889
vt 0.05 0.6666666
vt 0.475 0
vt 0.5 0
vt 0.5 0.02777779
vt 0.475 0.02777779
vt 0.1 0
vt 0.125 0
vt 0.125 0.02777779
vt 0.1 0.02777779
vt 0.175 0.8333333
vt 0.2 0.8333333
vt 0.2 0.8611111
vt 0.175 0.8611111
vt 0.15 0
vt 0.175 0
vt 0.175 0.02777779
vt 0.15 0.02777779
vt 0.1 0.6388889
vt 0 0.75
vt 0.025 0.75
vt 0.025 0.7777778
vt 0 0.7777778
vt 0.05 0.75
vt 0.05 0.7777778
vt 0.2 0
vt 0.2 0.02777779

# Normal
vn 0 0 -1

# Mesh description
g Pueblo---Jardin-Jugador_mesh_0003

# Faces
f 1/1/1 2/2/1 3/3/1 4/4/1
f 5/5/1 6/6/1 7/7/1 8/8/1
f 9/9/1 10/10/1 11/1/1 12/11/1
f 13/12/1 14/13/1 15/14/1 16/15/1
f 17/12/1 18/13/1 19/14/1 20/15/1
f 21/1/1 22/2/1 23/3/1 24/4/1
f 25/16/1 26/17/1 27/18/1 28/19/1
f 29/20/1 30/21/1 31/22/1 32/23/1
f 33/12/1 34/13/1 35/14/1 36/15/1
f 37/12/1 38/13/1 39/14/1 40/15/1
f 41/24/1 42/25/1 43/26/1 44/27/1
f 45/24/1 46/25/1 47/26/1 48/27/1
f 49/24/1 50/25/1 51/26/1 52/27/1
f 53/24/1 54/25/1 55/26/1 56/27/1
f 57/1/1 58/2/1 59/3/1 60/4/1
f 61/10/1 62/28/1 63/2/1 64/1/1
f 65/29/1 66/30/1 67/31/1 68/32/1
f 69/29/1 70/30/1 71/31/1 72/32/1
f 73/10/1 74/28/1 75/2/1 76/1/1
f 77/1/1 78/2/1 79/3/1 80/4/1
f 81/24/1 82/25/1 83/26/1 84/27/1
f 85/29/1 86/30/1 87/31/1 88/32/1
f 89/30/1 90/33/1 91/34/1 92/31/1
f 93/1/1 94/2/1 95/3/1 96/4/1
f 97/1/1 98/2/1 99/3/1 100/4/1
f 101/30/1 102/33/1 103/34/1 104/31/1
f 105/29/1 106/30/1 107/31/1 108/32/1
f 109/24/1 110/25/1 111/26/1 112/27/1
f 113/1/1 114/2/1 115/3/1 116/4/1
f 117/10/1 118/28/1 119/2/1 120/1/1
f 121/29/1 122/30/1 123/31/1 124/32/1
f 125/29/1 126/30/1 127/31/1 128/32/1
f 129/10/1 130/28/1 131/2/1 132/1/1
f 133/1/1 134/2/1 135/3/1 136/4/1
f 137/24/1 138/25/1 139/26/1 140/27/1
f 141/24/1 142/25/1 143/26/1 144/27/1
f 145/29/1 146/30/1 147/31/1 148/32/1
f 149/30/1 150/33/1 151/34/1 152/31/1
f 153/1/1 154/2/1 155/3/1 156/4/1
f 157/1/1 158/2/1 159/3/1 160/4/1
f 161/30/1 162/33/1 163/34/1 164/31/1
f 165/29/1 166/30/1 167/31/1 168/32/1
f 169/24/1 170/25/1 171/26/1 172/27/1
f 173/1/1 174/2/1 175/3/1 176/4/1
f 177/10/1 178/28/1 179/2/1 180/1/1
f 181/29/1 182/30/1 183/31/1 184/32/1
f 185/29/1 186/30/1 187/31/1 188/32/1
f 189/10/1 190/28/1 191/2/1 192/1/1
f 193/1/1 194/2/1 195/3/1 196/4/1
f 197/24/1 198/25/1 199/26/1 200/27/1
f 201/25/1 202/35/1 203/36/1 204/26/1
f 205/29/1 206/30/1 207/31/1 208/32/1
f 209/30/1 210/33/1 211/34/1 212/31/1
f 213/1/1 214/2/1 215/3/1 216/4/1
f 217/1/1 218/2/1 219/3/1 220/4/1
f 221/30/1 222/33/1 223/34/1 224/31/1
f 225/29/1 226/30/1 227/31/1 228/32/1
f 229/24/1 230/25/1 231/26/1 232/27/1
f 233/1/1 234/2/1 235/3/1 236/4/1
f 237/10/1 238/28/1 239/2/1 240/1/1
f 241/29/1 242/30/1 243/31/1 244/32/1
f 245/29/1 246/30/1 247/31/1 248/32/1
f 249/10/1 250/28/1 251/2/1 252/1/1
f 253/1/1 254/2/1 255/3/1 256/4/1
f 257/24/1 258/25/1 259/26/1 260/27/1
f 261/24/1 262/25/1 263/26/1 264/27/1
f 265/24/1 266/25/1 267/26/1 268/27/1
f 269/24/1 270/25/1 271/26/1 272/27/1
f 273/24/1 274/25/1 275/26/1 276/27/1
f 277/25/1 278/35/1 279/36/1 280/26/1
f 281/24/1 282/25/1 283/26/1 284/27/1
f 285/24/1 286/25/1 287/26/1 288/27/1
f 289/24/1 290/25/1 291/26/1 292/27/1
f 293/24/1 294/25/1 295/26/1 296/27/1
f 297/24/1 298/25/1 299/26/1 300/27/1
f 301/24/1 302/25/1 303/26/1 304/27/1
f 305/24/1 306/25/1 307/26/1 308/27/1
f 309/24/1 310/25/1 311/26/1 312/27/1
f 313/24/1 314/25/1 315/26/1 316/27/1
f 317/24/1 318/25/1 319/26/1 320/27/1
f 321/24/1 322/25/1 323/26/1 324/27/1

