# Tiled2Unity generated file. Do not modify by hand.
# Wavefront file for 'Pueblo---Centro-del-Pueblo_mesh_0003.obj'

# Vertices (Count = 440)
v -3 -5 0
v -4 -5 0
v -4 -4 0
v -3 -4 0
v -4 -5 0
v -5 -5 0
v -5 -4 0
v -4 -4 0
v -5 -5 0
v -6 -5 0
v -6 -4 0
v -5 -4 0
v -6 -5 0
v -7 -5 0
v -7 -4 0
v -6 -4 0
v -7 -5 0
v -8 -5 0
v -8 -4 0
v -7 -4 0
v -13 -5 0
v -14 -5 0
v -14 -4 0
v -13 -4 0
v -14 -5 0
v -15 -5 0
v -15 -4 0
v -14 -4 0
v -15 -5 0
v -16 -5 0
v -16 -4 0
v -15 -4 0
v -16 -5 0
v -17 -5 0
v -17 -4 0
v -16 -4 0
v -17 -5 0
v -18 -5 0
v -18 -4 0
v -17 -4 0
v -3 -6 0
v -4 -6 0
v -4 -5 0
v -3 -5 0
v -4 -6 0
v -5 -6 0
v -5 -5 0
v -4 -5 0
v -5 -6 0
v -6 -6 0
v -6 -5 0
v -5 -5 0
v -6 -6 0
v -7 -6 0
v -7 -5 0
v -6 -5 0
v -7 -6 0
v -8 -6 0
v -8 -5 0
v -7 -5 0
v -13 -6 0
v -14 -6 0
v -14 -5 0
v -13 -5 0
v -14 -6 0
v -15 -6 0
v -15 -5 0
v -14 -5 0
v -15 -6 0
v -16 -6 0
v -16 -5 0
v -15 -5 0
v -16 -6 0
v -17 -6 0
v -17 -5 0
v -16 -5 0
v -17 -6 0
v -18 -6 0
v -18 -5 0
v -17 -5 0
v -3 -7 0
v -4 -7 0
v -4 -6 0
v -3 -6 0
v -4 -7 0
v -5 -7 0
v -5 -6 0
v -4 -6 0
v -5 -7 0
v -6 -7 0
v -6 -6 0
v -5 -6 0
v -6 -7 0
v -7 -7 0
v -7 -6 0
v -6 -6 0
v -7 -7 0
v -8 -7 0
v -8 -6 0
v -7 -6 0
v -13 -7 0
v -14 -7 0
v -14 -6 0
v -13 -6 0
v -14 -7 0
v -15 -7 0
v -15 -6 0
v -14 -6 0
v -15 -7 0
v -16 -7 0
v -16 -6 0
v -15 -6 0
v -16 -7 0
v -17 -7 0
v -17 -6 0
v -16 -6 0
v -17 -7 0
v -18 -7 0
v -18 -6 0
v -17 -6 0
v -3 -8 0
v -4 -8 0
v -4 -7 0
v -3 -7 0
v -4 -8 0
v -5 -8 0
v -5 -7 0
v -4 -7 0
v -5 -8 0
v -6 -8 0
v -6 -7 0
v -5 -7 0
v -6 -8 0
v -7 -8 0
v -7 -7 0
v -6 -7 0
v -7 -8 0
v -8 -8 0
v -8 -7 0
v -7 -7 0
v -13 -8 0
v -14 -8 0
v -14 -7 0
v -13 -7 0
v -14 -8 0
v -15 -8 0
v -15 -7 0
v -14 -7 0
v -15 -8 0
v -16 -8 0
v -16 -7 0
v -15 -7 0
v -16 -8 0
v -17 -8 0
v -17 -7 0
v -16 -7 0
v -17 -8 0
v -18 -8 0
v -18 -7 0
v -17 -7 0
v -3 -9 0
v -4 -9 0
v -4 -8 0
v -3 -8 0
v -4 -9 0
v -5 -9 0
v -5 -8 0
v -4 -8 0
v -5 -9 0
v -6 -9 0
v -6 -8 0
v -5 -8 0
v -6 -9 0
v -7 -9 0
v -7 -8 0
v -6 -8 0
v -7 -9 0
v -8 -9 0
v -8 -8 0
v -7 -8 0
v -13 -9 0
v -14 -9 0
v -14 -8 0
v -13 -8 0
v -14 -9 0
v -15 -9 0
v -15 -8 0
v -14 -8 0
v -15 -9 0
v -16 -9 0
v -16 -8 0
v -15 -8 0
v -16 -9 0
v -17 -9 0
v -17 -8 0
v -16 -8 0
v -17 -9 0
v -18 -9 0
v -18 -8 0
v -17 -8 0
v -3 -13 0
v -4 -13 0
v -4 -12 0
v -3 -12 0
v -4 -13 0
v -5 -13 0
v -5 -12 0
v -4 -12 0
v -5 -13 0
v -6 -13 0
v -6 -12 0
v -5 -12 0
v -6 -13 0
v -7 -13 0
v -7 -12 0
v -6 -12 0
v -7 -13 0
v -8 -13 0
v -8 -12 0
v -7 -12 0
v -13 -13 0
v -14 -13 0
v -14 -12 0
v -13 -12 0
v -14 -13 0
v -15 -13 0
v -15 -12 0
v -14 -12 0
v -15 -13 0
v -16 -13 0
v -16 -12 0
v -15 -12 0
v -16 -13 0
v -17 -13 0
v -17 -12 0
v -16 -12 0
v -17 -13 0
v -18 -13 0
v -18 -12 0
v -17 -12 0
v -3 -14 0
v -4 -14 0
v -4 -13 0
v -3 -13 0
v -4 -14 0
v -5 -14 0
v -5 -13 0
v -4 -13 0
v -5 -14 0
v -6 -14 0
v -6 -13 0
v -5 -13 0
v -6 -14 0
v -7 -14 0
v -7 -13 0
v -6 -13 0
v -7 -14 0
v -8 -14 0
v -8 -13 0
v -7 -13 0
v -13 -14 0
v -14 -14 0
v -14 -13 0
v -13 -13 0
v -14 -14 0
v -15 -14 0
v -15 -13 0
v -14 -13 0
v -15 -14 0
v -16 -14 0
v -16 -13 0
v -15 -13 0
v -16 -14 0
v -17 -14 0
v -17 -13 0
v -16 -13 0
v -17 -14 0
v -18 -14 0
v -18 -13 0
v -17 -13 0
v -3 -15 0
v -4 -15 0
v -4 -14 0
v -3 -14 0
v -4 -15 0
v -5 -15 0
v -5 -14 0
v -4 -14 0
v -5 -15 0
v -6 -15 0
v -6 -14 0
v -5 -14 0
v -6 -15 0
v -7 -15 0
v -7 -14 0
v -6 -14 0
v -7 -15 0
v -8 -15 0
v -8 -14 0
v -7 -14 0
v -13 -15 0
v -14 -15 0
v -14 -14 0
v -13 -14 0
v -14 -15 0
v -15 -15 0
v -15 -14 0
v -14 -14 0
v -15 -15 0
v -16 -15 0
v -16 -14 0
v -15 -14 0
v -16 -15 0
v -17 -15 0
v -17 -14 0
v -16 -14 0
v -17 -15 0
v -18 -15 0
v -18 -14 0
v -17 -14 0
v -3 -16 0
v -4 -16 0
v -4 -15 0
v -3 -15 0
v -4 -16 0
v -5 -16 0
v -5 -15 0
v -4 -15 0
v -5 -16 0
v -6 -16 0
v -6 -15 0
v -5 -15 0
v -6 -16 0
v -7 -16 0
v -7 -15 0
v -6 -15 0
v -7 -16 0
v -8 -16 0
v -8 -15 0
v -7 -15 0
v -13 -16 0
v -14 -16 0
v -14 -15 0
v -13 -15 0
v -14 -16 0
v -15 -16 0
v -15 -15 0
v -14 -15 0
v -15 -16 0
v -16 -16 0
v -16 -15 0
v -15 -15 0
v -16 -16 0
v -17 -16 0
v -17 -15 0
v -16 -15 0
v -17 -16 0
v -18 -16 0
v -18 -15 0
v -17 -15 0
v -3 -17 0
v -4 -17 0
v -4 -16 0
v -3 -16 0
v -4 -17 0
v -5 -17 0
v -5 -16 0
v -4 -16 0
v -5 -17 0
v -6 -17 0
v -6 -16 0
v -5 -16 0
v -6 -17 0
v -7 -17 0
v -7 -16 0
v -6 -16 0
v -7 -17 0
v -8 -17 0
v -8 -16 0
v -7 -16 0
v -13 -17 0
v -14 -17 0
v -14 -16 0
v -13 -16 0
v -14 -17 0
v -15 -17 0
v -15 -16 0
v -14 -16 0
v -15 -17 0
v -16 -17 0
v -16 -16 0
v -15 -16 0
v -16 -17 0
v -17 -17 0
v -17 -16 0
v -16 -16 0
v -17 -17 0
v -18 -17 0
v -18 -16 0
v -17 -16 0
v -3 -18 0
v -4 -18 0
v -4 -17 0
v -3 -17 0
v -4 -18 0
v -5 -18 0
v -5 -17 0
v -4 -17 0
v -5 -18 0
v -6 -18 0
v -6 -17 0
v -5 -17 0
v -6 -18 0
v -7 -18 0
v -7 -17 0
v -6 -17 0
v -7 -18 0
v -8 -18 0
v -8 -17 0
v -7 -17 0
v -13 -18 0
v -14 -18 0
v -14 -17 0
v -13 -17 0
v -14 -18 0
v -15 -18 0
v -15 -17 0
v -14 -17 0
v -15 -18 0
v -16 -18 0
v -16 -17 0
v -15 -17 0
v -16 -18 0
v -17 -18 0
v -17 -17 0
v -16 -17 0
v -17 -18 0
v -18 -18 0
v -18 -17 0
v -17 -17 0

# Texture cooridinates (Count = 84)
vt 0.275 0.9722222
vt 0.3 0.9722222
vt 0.3 1
vt 0.275 1
vt 0.325 0.9722222
vt 0.325 1
vt 0.35 0.9722222
vt 0.35 1
vt 0.225 0.9722222
vt 0.25 0.9722222
vt 0.25 1
vt 0.225 1
vt 0.15 0.9722222
vt 0.175 0.9722222
vt 0.175 1
vt 0.15 1
vt 0.2 0.9722222
vt 0.2 1
vt 0.375 0.9722222
vt 0.375 1
vt 0.4 0.9722222
vt 0.4 1
vt 0.275 0.9444444
vt 0.3 0.9444444
vt 0.325 0.9444444
vt 0.35 0.9444444
vt 0.225 0.9444444
vt 0.25 0.9444444
vt 0.15 0.9444444
vt 0.175 0.9444444
vt 0.2 0.9444444
vt 0.375 0.9444444
vt 0.4 0.9444444
vt 0.275 0.9166667
vt 0.3 0.9166667
vt 0.325 0.9166667
vt 0.35 0.9166667
vt 0.375 0.9166667
vt 0.4 0.9166667
vt 0.2 0.9166667
vt 0.225 0.9166667
vt 0.275 0.8888889
vt 0.3 0.8888889
vt 0.325 0.8888889
vt 0.45 0.8611111
vt 0.475 0.8611111
vt 0.475 0.8888889
vt 0.45 0.8888889
vt 0.225 0.8888889
vt 0.25 0.8888889
vt 0.25 0.9166667
vt 0.15 0.8888889
vt 0.175 0.8888889
vt 0.175 0.9166667
vt 0.15 0.9166667
vt 0.2 0.8888889
vt 0.4 0.8611111
vt 0.425 0.8611111
vt 0.425 0.8888889
vt 0.4 0.8888889
vt 0.35 0.8888889
vt 0.375 0.8888889
vt 0.275 0.8611111
vt 0.3 0.8611111
vt 0.325 0.8611111
vt 0.45 0.8333333
vt 0.475 0.8333333
vt 0.225 0.8611111
vt 0.25 0.8611111
vt 0.15 0.8611111
vt 0.175 0.8611111
vt 0.2 0.8611111
vt 0.4 0.8333333
vt 0.425 0.8333333
vt 0.35 0.8611111
vt 0.375 0.8611111
vt 0.175 0
vt 0.2 0
vt 0.2 0.02777779
vt 0.175 0.02777779
vt 0.225 0
vt 0.25 0
vt 0.25 0.02777779
vt 0.225 0.02777779

# Normal
vn 0 0 -1

# Mesh description
g Pueblo---Centro-del-Pueblo_mesh_0003

# Faces
f 1/1/1 2/2/1 3/3/1 4/4/1
f 5/2/1 6/5/1 7/6/1 8/3/1
f 9/5/1 10/7/1 11/8/1 12/6/1
f 13/9/1 14/10/1 15/11/1 16/12/1
f 17/10/1 18/1/1 19/4/1 20/11/1
f 21/13/1 22/14/1 23/15/1 24/16/1
f 25/14/1 26/17/1 27/18/1 28/15/1
f 29/5/1 30/7/1 31/8/1 32/6/1
f 33/7/1 34/19/1 35/20/1 36/8/1
f 37/19/1 38/21/1 39/22/1 40/20/1
f 41/23/1 42/24/1 43/2/1 44/1/1
f 45/24/1 46/25/1 47/5/1 48/2/1
f 49/25/1 50/26/1 51/7/1 52/5/1
f 53/27/1 54/28/1 55/10/1 56/9/1
f 57/28/1 58/23/1 59/1/1 60/10/1
f 61/29/1 62/30/1 63/14/1 64/13/1
f 65/30/1 66/31/1 67/17/1 68/14/1
f 69/25/1 70/26/1 71/7/1 72/5/1
f 73/26/1 74/32/1 75/19/1 76/7/1
f 77/32/1 78/33/1 79/21/1 80/19/1
f 81/34/1 82/35/1 83/24/1 84/23/1
f 85/35/1 86/36/1 87/25/1 88/24/1
f 89/36/1 90/37/1 91/26/1 92/25/1
f 93/37/1 94/38/1 95/32/1 96/26/1
f 97/38/1 98/39/1 99/33/1 100/32/1
f 101/34/1 102/35/1 103/24/1 104/23/1
f 105/35/1 106/36/1 107/25/1 108/24/1
f 109/40/1 110/41/1 111/27/1 112/31/1
f 113/37/1 114/38/1 115/32/1 116/26/1
f 117/38/1 118/39/1 119/33/1 120/32/1
f 121/42/1 122/43/1 123/35/1 124/34/1
f 125/43/1 126/44/1 127/36/1 128/35/1
f 129/45/1 130/46/1 131/47/1 132/48/1
f 133/49/1 134/50/1 135/51/1 136/41/1
f 137/50/1 138/42/1 139/34/1 140/51/1
f 141/52/1 142/53/1 143/54/1 144/55/1
f 145/53/1 146/56/1 147/40/1 148/54/1
f 149/57/1 150/58/1 151/59/1 152/60/1
f 153/61/1 154/62/1 155/38/1 156/37/1
f 157/62/1 158/60/1 159/39/1 160/38/1
f 161/63/1 162/64/1 163/43/1 164/42/1
f 165/64/1 166/65/1 167/44/1 168/43/1
f 169/66/1 170/67/1 171/46/1 172/45/1
f 173/68/1 174/69/1 175/50/1 176/49/1
f 177/69/1 178/63/1 179/42/1 180/50/1
f 181/70/1 182/71/1 183/53/1 184/52/1
f 185/71/1 186/72/1 187/56/1 188/53/1
f 189/73/1 190/74/1 191/58/1 192/57/1
f 193/75/1 194/76/1 195/62/1 196/61/1
f 197/76/1 198/57/1 199/60/1 200/62/1
f 201/77/1 202/78/1 203/79/1 204/80/1
f 205/77/1 206/78/1 207/79/1 208/80/1
f 209/77/1 210/78/1 211/79/1 212/80/1
f 213/77/1 214/78/1 215/79/1 216/80/1
f 217/77/1 218/78/1 219/79/1 220/80/1
f 221/81/1 222/82/1 223/83/1 224/84/1
f 225/81/1 226/82/1 227/83/1 228/84/1
f 229/81/1 230/82/1 231/83/1 232/84/1
f 233/81/1 234/82/1 235/83/1 236/84/1
f 237/81/1 238/82/1 239/83/1 240/84/1
f 241/1/1 242/2/1 243/3/1 244/4/1
f 245/2/1 246/5/1 247/6/1 248/3/1
f 249/17/1 250/9/1 251/12/1 252/18/1
f 253/9/1 254/10/1 255/11/1 256/12/1
f 257/10/1 258/1/1 259/4/1 260/11/1
f 261/13/1 262/14/1 263/15/1 264/16/1
f 265/14/1 266/17/1 267/18/1 268/15/1
f 269/5/1 270/7/1 271/8/1 272/6/1
f 273/7/1 274/19/1 275/20/1 276/8/1
f 277/19/1 278/21/1 279/22/1 280/20/1
f 281/23/1 282/24/1 283/2/1 284/1/1
f 285/24/1 286/25/1 287/5/1 288/2/1
f 289/31/1 290/27/1 291/9/1 292/17/1
f 293/27/1 294/28/1 295/10/1 296/9/1
f 297/28/1 298/23/1 299/1/1 300/10/1
f 301/29/1 302/30/1 303/14/1 304/13/1
f 305/30/1 306/31/1 307/17/1 308/14/1
f 309/25/1 310/26/1 311/7/1 312/5/1
f 313/26/1 314/32/1 315/19/1 316/7/1
f 317/32/1 318/33/1 319/21/1 320/19/1
f 321/34/1 322/35/1 323/24/1 324/23/1
f 325/35/1 326/36/1 327/25/1 328/24/1
f 329/36/1 330/37/1 331/26/1 332/25/1
f 333/37/1 334/38/1 335/32/1 336/26/1
f 337/38/1 338/39/1 339/33/1 340/32/1
f 341/34/1 342/35/1 343/24/1 344/23/1
f 345/35/1 346/36/1 347/25/1 348/24/1
f 349/36/1 350/37/1 351/26/1 352/25/1
f 353/37/1 354/38/1 355/32/1 356/26/1
f 357/38/1 358/39/1 359/33/1 360/32/1
f 361/42/1 362/43/1 363/35/1 364/34/1
f 365/43/1 366/44/1 367/36/1 368/35/1
f 369/44/1 370/61/1 371/37/1 372/36/1
f 373/61/1 374/62/1 375/38/1 376/37/1
f 377/62/1 378/60/1 379/39/1 380/38/1
f 381/42/1 382/43/1 383/35/1 384/34/1
f 385/43/1 386/44/1 387/36/1 388/35/1
f 389/44/1 390/61/1 391/37/1 392/36/1
f 393/61/1 394/62/1 395/38/1 396/37/1
f 397/62/1 398/60/1 399/39/1 400/38/1
f 401/63/1 402/64/1 403/43/1 404/42/1
f 405/64/1 406/65/1 407/44/1 408/43/1
f 409/65/1 410/75/1 411/61/1 412/44/1
f 413/75/1 414/76/1 415/62/1 416/61/1
f 417/76/1 418/57/1 419/60/1 420/62/1
f 421/63/1 422/64/1 423/43/1 424/42/1
f 425/64/1 426/65/1 427/44/1 428/43/1
f 429/65/1 430/75/1 431/61/1 432/44/1
f 433/75/1 434/76/1 435/62/1 436/61/1
f 437/76/1 438/57/1 439/60/1 440/62/1

