# Tiled2Unity generated file. Do not modify by hand.
# Wavefront file for 'Pueblo---Centro-del-Pueblo_mesh_0002.obj'

# Vertices (Count = 116)
v -3 -4 0
v -4 -4 0
v -4 -3 0
v -3 -3 0
v -6 -4 0
v -7 -4 0
v -7 -3 0
v -6 -3 0
v -8 -4 0
v -9 -4 0
v -9 -3 0
v -8 -3 0
v -9 -4 0
v -10 -4 0
v -10 -3 0
v -9 -3 0
v -10 -4 0
v -11 -4 0
v -11 -3 0
v -10 -3 0
v -12 -4 0
v -13 -4 0
v -13 -3 0
v -12 -3 0
v -16 -4 0
v -17 -4 0
v -17 -3 0
v -16 -3 0
v -18 -4 0
v -19 -4 0
v -19 -3 0
v -18 -3 0
v -18 -5 0
v -19 -5 0
v -19 -4 0
v -18 -4 0
v -2 -6 0
v -3 -6 0
v -3 -5 0
v -2 -5 0
v -18 -6 0
v -19 -6 0
v -19 -5 0
v -18 -5 0
v -8 -15 0
v -9 -15 0
v -9 -14 0
v -8 -14 0
v -12 -15 0
v -13 -15 0
v -13 -14 0
v -12 -14 0
v -12 -17 0
v -13 -17 0
v -13 -16 0
v -12 -16 0
v -4 -18 0
v -5 -18 0
v -5 -17 0
v -4 -17 0
v -5 -18 0
v -6 -18 0
v -6 -17 0
v -5 -17 0
v -6 -18 0
v -7 -18 0
v -7 -17 0
v -6 -17 0
v -8 -18 0
v -9 -18 0
v -9 -17 0
v -8 -17 0
v -14 -18 0
v -15 -18 0
v -15 -17 0
v -14 -17 0
v -15 -18 0
v -16 -18 0
v -16 -17 0
v -15 -17 0
v -16 -18 0
v -17 -18 0
v -17 -17 0
v -16 -17 0
v -4 -19 0
v -5 -19 0
v -5 -18 0
v -4 -18 0
v -5 -19 0
v -6 -19 0
v -6 -18 0
v -5 -18 0
v -6 -19 0
v -7 -19 0
v -7 -18 0
v -6 -18 0
v -11 -19 0
v -12 -19 0
v -12 -18 0
v -11 -18 0
v -13 -19 0
v -14 -19 0
v -14 -18 0
v -13 -18 0
v -14 -19 0
v -15 -19 0
v -15 -18 0
v -14 -18 0
v -15 -19 0
v -16 -19 0
v -16 -18 0
v -15 -18 0
v -16 -19 0
v -17 -19 0
v -17 -18 0
v -16 -18 0

# Texture cooridinates (Count = 28)
vt 0.05 0.6388889
vt 0.075 0.6388889
vt 0.075 0.6666666
vt 0.05 0.6666666
vt 0.1 0.6666666
vt 0.1 0.6944444
vt 0.075 0.6944444
vt 0.025 0.75
vt 0.05 0.75
vt 0.05 0.7777778
vt 0.025 0.7777778
vt 0.1 0.6388889
vt 0 0.75
vt 0 0.7777778
vt 0.175 0
vt 0.2 0
vt 0.2 0.02777779
vt 0.175 0.02777779
vt 0.075 0.02777779
vt 0.1 0.02777779
vt 0.1 0.05555558
vt 0.075 0.05555558
vt 0.025 0.02777779
vt 0.05 0.02777779
vt 0.05 0.05555558
vt 0.025 0.05555558
vt 0 0.02777779
vt 0 0.05555558

# Normal
vn 0 0 -1

# Mesh description
g Pueblo---Centro-del-Pueblo_mesh_0002

# Faces
f 1/1/1 2/2/1 3/3/1 4/4/1
f 5/3/1 6/5/1 7/6/1 8/7/1
f 9/8/1 10/9/1 11/10/1 12/11/1
f 13/1/1 14/2/1 15/3/1 16/4/1
f 17/2/1 18/12/1 19/5/1 20/3/1
f 21/13/1 22/8/1 23/11/1 24/14/1
f 25/1/1 26/2/1 27/3/1 28/4/1
f 29/1/1 30/2/1 31/3/1 32/4/1
f 33/3/1 34/5/1 35/6/1 36/7/1
f 37/1/1 38/2/1 39/3/1 40/4/1
f 41/1/1 42/2/1 43/3/1 44/4/1
f 45/8/1 46/9/1 47/10/1 48/11/1
f 49/1/1 50/2/1 51/3/1 52/4/1
f 53/1/1 54/2/1 55/3/1 56/4/1
f 57/15/1 58/16/1 59/17/1 60/18/1
f 61/15/1 62/16/1 63/17/1 64/18/1
f 65/15/1 66/16/1 67/17/1 68/18/1
f 69/3/1 70/5/1 71/6/1 72/7/1
f 73/19/1 74/20/1 75/21/1 76/22/1
f 77/19/1 78/20/1 79/21/1 80/22/1
f 81/19/1 82/20/1 83/21/1 84/22/1
f 85/23/1 86/24/1 87/25/1 88/26/1
f 89/23/1 90/24/1 91/25/1 92/26/1
f 93/23/1 94/24/1 95/25/1 96/26/1
f 97/13/1 98/8/1 99/11/1 100/14/1
f 101/19/1 102/20/1 103/21/1 104/22/1
f 105/27/1 106/23/1 107/26/1 108/28/1
f 109/27/1 110/23/1 111/26/1 112/28/1
f 113/27/1 114/23/1 115/26/1 116/28/1

