# Tiled2Unity generated file. Do not modify by hand.
# Wavefront file for 'Pueblo---Casa-Jugador_mesh_0004.obj'

# Vertices (Count = 308)
v 0 -1 0
v -1 -1 0
v -1 0 0
v 0 0 0
v -1 -1 0
v -2 -1 0
v -2 0 0
v -1 0 0
v -2 -1 0
v -3 -1 0
v -3 0 0
v -2 0 0
v -3 -1 0
v -4 -1 0
v -4 0 0
v -3 0 0
v -4 -1 0
v -5 -1 0
v -5 0 0
v -4 0 0
v -5 -1 0
v -6 -1 0
v -6 0 0
v -5 0 0
v -6 -1 0
v -7 -1 0
v -7 0 0
v -6 0 0
v -7 -1 0
v -8 -1 0
v -8 0 0
v -7 0 0
v -8 -1 0
v -9 -1 0
v -9 0 0
v -8 0 0
v -9 -1 0
v -10 -1 0
v -10 0 0
v -9 0 0
v -10 -1 0
v -11 -1 0
v -11 0 0
v -10 0 0
v -11 -1 0
v -12 -1 0
v -12 0 0
v -11 0 0
v -12 -1 0
v -13 -1 0
v -13 0 0
v -12 0 0
v -13 -1 0
v -14 -1 0
v -14 0 0
v -13 0 0
v -14 -1 0
v -15 -1 0
v -15 0 0
v -14 0 0
v 0 -2 0
v -1 -2 0
v -1 -1 0
v 0 -1 0
v -1 -2 0
v -2 -2 0
v -2 -1 0
v -1 -1 0
v -2 -2 0
v -3 -2 0
v -3 -1 0
v -2 -1 0
v -3 -2 0
v -4 -2 0
v -4 -1 0
v -3 -1 0
v -4 -2 0
v -5 -2 0
v -5 -1 0
v -4 -1 0
v -5 -2 0
v -6 -2 0
v -6 -1 0
v -5 -1 0
v -6 -2 0
v -7 -2 0
v -7 -1 0
v -6 -1 0
v -7 -2 0
v -8 -2 0
v -8 -1 0
v -7 -1 0
v -8 -2 0
v -9 -2 0
v -9 -1 0
v -8 -1 0
v -9 -2 0
v -10 -2 0
v -10 -1 0
v -9 -1 0
v -10 -2 0
v -11 -2 0
v -11 -1 0
v -10 -1 0
v -11 -2 0
v -12 -2 0
v -12 -1 0
v -11 -1 0
v -12 -2 0
v -13 -2 0
v -13 -1 0
v -12 -1 0
v -13 -2 0
v -14 -2 0
v -14 -1 0
v -13 -1 0
v -14 -2 0
v -15 -2 0
v -15 -1 0
v -14 -1 0
v 0 -3 0
v -1 -3 0
v -1 -2 0
v 0 -2 0
v -1 -3 0
v -2 -3 0
v -2 -2 0
v -1 -2 0
v -14 -3 0
v -15 -3 0
v -15 -2 0
v -14 -2 0
v 0 -4 0
v -1 -4 0
v -1 -3 0
v 0 -3 0
v -1 -4 0
v -2 -4 0
v -2 -3 0
v -1 -3 0
v -14 -4 0
v -15 -4 0
v -15 -3 0
v -14 -3 0
v 0 -5 0
v -1 -5 0
v -1 -4 0
v 0 -4 0
v -1 -5 0
v -2 -5 0
v -2 -4 0
v -1 -4 0
v -14 -5 0
v -15 -5 0
v -15 -4 0
v -14 -4 0
v 0 -6 0
v -1 -6 0
v -1 -5 0
v 0 -5 0
v -1 -6 0
v -2 -6 0
v -2 -5 0
v -1 -5 0
v 0 -7 0
v -1 -7 0
v -1 -6 0
v 0 -6 0
v -1 -7 0
v -2 -7 0
v -2 -6 0
v -1 -6 0
v 0 -8 0
v -1 -8 0
v -1 -7 0
v 0 -7 0
v -1 -8 0
v -2 -8 0
v -2 -7 0
v -1 -7 0
v 0 -9 0
v -1 -9 0
v -1 -8 0
v 0 -8 0
v -1 -9 0
v -2 -9 0
v -2 -8 0
v -1 -8 0
v -14 -9 0
v -15 -9 0
v -15 -8 0
v -14 -8 0
v 0 -10 0
v -1 -10 0
v -1 -9 0
v 0 -9 0
v -1 -10 0
v -2 -10 0
v -2 -9 0
v -1 -9 0
v -14 -10 0
v -15 -10 0
v -15 -9 0
v -14 -9 0
v 0 -11 0
v -1 -11 0
v -1 -10 0
v 0 -10 0
v -1 -11 0
v -2 -11 0
v -2 -10 0
v -1 -10 0
v -13 -11 0
v -14 -11 0
v -14 -10 0
v -13 -10 0
v -14 -11 0
v -15 -11 0
v -15 -10 0
v -14 -10 0
v 0 -12 0
v -1 -12 0
v -1 -11 0
v 0 -11 0
v -1 -12 0
v -2 -12 0
v -2 -11 0
v -1 -11 0
v -13 -12 0
v -14 -12 0
v -14 -11 0
v -13 -11 0
v -14 -12 0
v -15 -12 0
v -15 -11 0
v -14 -11 0
v 0 -13 0
v -1 -13 0
v -1 -12 0
v 0 -12 0
v -1 -13 0
v -2 -13 0
v -2 -12 0
v -1 -12 0
v -14 -13 0
v -15 -13 0
v -15 -12 0
v -14 -12 0
v 0 -14 0
v -1 -14 0
v -1 -13 0
v 0 -13 0
v -1 -14 0
v -2 -14 0
v -2 -13 0
v -1 -13 0
v -14 -14 0
v -15 -14 0
v -15 -13 0
v -14 -13 0
v 0 -15 0
v -1 -15 0
v -1 -14 0
v 0 -14 0
v -1 -15 0
v -2 -15 0
v -2 -14 0
v -1 -14 0
v -2 -15 0
v -3 -15 0
v -3 -14 0
v -2 -14 0
v -3 -15 0
v -4 -15 0
v -4 -14 0
v -3 -14 0
v -4 -15 0
v -5 -15 0
v -5 -14 0
v -4 -14 0
v -5 -15 0
v -6 -15 0
v -6 -14 0
v -5 -14 0
v -9 -15 0
v -10 -15 0
v -10 -14 0
v -9 -14 0
v -10 -15 0
v -11 -15 0
v -11 -14 0
v -10 -14 0
v -11 -15 0
v -12 -15 0
v -12 -14 0
v -11 -14 0
v -12 -15 0
v -13 -15 0
v -13 -14 0
v -12 -14 0
v -13 -15 0
v -14 -15 0
v -14 -14 0
v -13 -14 0
v -14 -15 0
v -15 -15 0
v -15 -14 0
v -14 -14 0

# Texture cooridinates (Count = 26)
vt 0.05 0.5277778
vt 0.075 0.5277778
vt 0.075 0.5555556
vt 0.05 0.5555556
vt 0.1 0.4444444
vt 0.125 0.4444444
vt 0.125 0.4722222
vt 0.1 0.4722222
vt 0.15 0.4444444
vt 0.15 0.4722222
vt 0.075 0.4444444
vt 0.075 0.4722222
vt 0.175 0.4722222
vt 0.2 0.4722222
vt 0.2 0.5
vt 0.175 0.5
vt 0.15 0.5
vt 0.125 0.5
vt 0.15 0.5277778
vt 0.125 0.5277778
vt 0.15 0.5555556
vt 0.125 0.5555556
vt 0.1 0.5277778
vt 0.1 0.5555556
vt 0.175 0.5277778
vt 0.175 0.5555556

# Normal
vn 0 0 -1

# Mesh description
g Pueblo---Casa-Jugador_mesh_0004

# Faces
f 1/1/1 2/2/1 3/3/1 4/4/1
f 5/1/1 6/2/1 7/3/1 8/4/1
f 9/1/1 10/2/1 11/3/1 12/4/1
f 13/1/1 14/2/1 15/3/1 16/4/1
f 17/1/1 18/2/1 19/3/1 20/4/1
f 21/1/1 22/2/1 23/3/1 24/4/1
f 25/1/1 26/2/1 27/3/1 28/4/1
f 29/1/1 30/2/1 31/3/1 32/4/1
f 33/1/1 34/2/1 35/3/1 36/4/1
f 37/1/1 38/2/1 39/3/1 40/4/1
f 41/1/1 42/2/1 43/3/1 44/4/1
f 45/1/1 46/2/1 47/3/1 48/4/1
f 49/1/1 50/2/1 51/3/1 52/4/1
f 53/1/1 54/2/1 55/3/1 56/4/1
f 57/1/1 58/2/1 59/3/1 60/4/1
f 61/1/1 62/2/1 63/3/1 64/4/1
f 65/5/1 66/6/1 67/7/1 68/8/1
f 69/6/1 70/9/1 71/10/1 72/7/1
f 73/6/1 74/9/1 75/10/1 76/7/1
f 77/6/1 78/9/1 79/10/1 80/7/1
f 81/6/1 82/9/1 83/10/1 84/7/1
f 85/6/1 86/9/1 87/10/1 88/7/1
f 89/6/1 90/9/1 91/10/1 92/7/1
f 93/6/1 94/9/1 95/10/1 96/7/1
f 97/6/1 98/9/1 99/10/1 100/7/1
f 101/6/1 102/9/1 103/10/1 104/7/1
f 105/6/1 106/9/1 107/10/1 108/7/1
f 109/6/1 110/9/1 111/10/1 112/7/1
f 113/6/1 114/9/1 115/10/1 116/7/1
f 117/11/1 118/5/1 119/8/1 120/12/1
f 121/1/1 122/2/1 123/3/1 124/4/1
f 125/13/1 126/14/1 127/15/1 128/16/1
f 129/10/1 130/13/1 131/16/1 132/17/1
f 133/1/1 134/2/1 135/3/1 136/4/1
f 137/13/1 138/14/1 139/15/1 140/16/1
f 141/10/1 142/13/1 143/16/1 144/17/1
f 145/1/1 146/2/1 147/3/1 148/4/1
f 149/13/1 150/14/1 151/15/1 152/16/1
f 153/18/1 154/17/1 155/19/1 156/20/1
f 157/1/1 158/2/1 159/3/1 160/4/1
f 161/13/1 162/14/1 163/15/1 164/16/1
f 165/1/1 166/2/1 167/3/1 168/4/1
f 169/13/1 170/14/1 171/15/1 172/16/1
f 173/1/1 174/2/1 175/3/1 176/4/1
f 177/13/1 178/14/1 179/15/1 180/16/1
f 181/1/1 182/2/1 183/3/1 184/4/1
f 185/13/1 186/14/1 187/15/1 188/16/1
f 189/20/1 190/19/1 191/21/1 192/22/1
f 193/1/1 194/2/1 195/3/1 196/4/1
f 197/13/1 198/14/1 199/15/1 200/16/1
f 201/10/1 202/13/1 203/16/1 204/17/1
f 205/1/1 206/2/1 207/3/1 208/4/1
f 209/13/1 210/14/1 211/15/1 212/16/1
f 213/20/1 214/19/1 215/21/1 216/22/1
f 217/2/1 218/23/1 219/24/1 220/3/1
f 221/1/1 222/2/1 223/3/1 224/4/1
f 225/13/1 226/14/1 227/15/1 228/16/1
f 229/18/1 230/17/1 231/19/1 232/20/1
f 233/11/1 234/5/1 235/8/1 236/12/1
f 237/1/1 238/2/1 239/3/1 240/4/1
f 241/13/1 242/14/1 243/15/1 244/16/1
f 245/10/1 246/13/1 247/16/1 248/17/1
f 249/1/1 250/2/1 251/3/1 252/4/1
f 253/13/1 254/14/1 255/15/1 256/16/1
f 257/10/1 258/13/1 259/16/1 260/17/1
f 261/1/1 262/2/1 263/3/1 264/4/1
f 265/23/1 266/20/1 267/22/1 268/24/1
f 269/7/1 270/10/1 271/17/1 272/18/1
f 273/7/1 274/10/1 275/17/1 276/18/1
f 277/7/1 278/10/1 279/17/1 280/18/1
f 281/19/1 282/25/1 283/26/1 284/21/1
f 285/20/1 286/19/1 287/21/1 288/22/1
f 289/7/1 290/10/1 291/17/1 292/18/1
f 293/7/1 294/10/1 295/17/1 296/18/1
f 297/7/1 298/10/1 299/17/1 300/18/1
f 301/7/1 302/10/1 303/17/1 304/18/1
f 305/2/1 306/23/1 307/24/1 308/3/1

