# Tiled2Unity generated file. Do not modify by hand.
# Wavefront file for 'Pueblo---Casa-Jugador_mesh_0002.obj'

# Vertices (Count = 380)
v -2 -5 0
v -3 -5 0
v -3 -4 0
v -2 -4 0
v -3 -5 0
v -4 -5 0
v -4 -4 0
v -3 -4 0
v -4 -5 0
v -5 -5 0
v -5 -4 0
v -4 -4 0
v -5 -5 0
v -6 -5 0
v -6 -4 0
v -5 -4 0
v -6 -5 0
v -7 -5 0
v -7 -4 0
v -6 -4 0
v -7 -5 0
v -8 -5 0
v -8 -4 0
v -7 -4 0
v -8 -5 0
v -9 -5 0
v -9 -4 0
v -8 -4 0
v -9 -5 0
v -10 -5 0
v -10 -4 0
v -9 -4 0
v -10 -5 0
v -11 -5 0
v -11 -4 0
v -10 -4 0
v -11 -5 0
v -12 -5 0
v -12 -4 0
v -11 -4 0
v -12 -5 0
v -13 -5 0
v -13 -4 0
v -12 -4 0
v -13 -5 0
v -14 -5 0
v -14 -4 0
v -13 -4 0
v -14 -5 0
v -15 -5 0
v -15 -4 0
v -14 -4 0
v -2 -6 0
v -3 -6 0
v -3 -5 0
v -2 -5 0
v -3 -6 0
v -4 -6 0
v -4 -5 0
v -3 -5 0
v -4 -6 0
v -5 -6 0
v -5 -5 0
v -4 -5 0
v -5 -6 0
v -6 -6 0
v -6 -5 0
v -5 -5 0
v -6 -6 0
v -7 -6 0
v -7 -5 0
v -6 -5 0
v -7 -6 0
v -8 -6 0
v -8 -5 0
v -7 -5 0
v -8 -6 0
v -9 -6 0
v -9 -5 0
v -8 -5 0
v -9 -6 0
v -10 -6 0
v -10 -5 0
v -9 -5 0
v -10 -6 0
v -11 -6 0
v -11 -5 0
v -10 -5 0
v -11 -6 0
v -12 -6 0
v -12 -5 0
v -11 -5 0
v -12 -6 0
v -13 -6 0
v -13 -5 0
v -12 -5 0
v -13 -6 0
v -14 -6 0
v -14 -5 0
v -13 -5 0
v -14 -6 0
v -15 -6 0
v -15 -5 0
v -14 -5 0
v -2 -7 0
v -3 -7 0
v -3 -6 0
v -2 -6 0
v -3 -7 0
v -4 -7 0
v -4 -6 0
v -3 -6 0
v -4 -7 0
v -5 -7 0
v -5 -6 0
v -4 -6 0
v -5 -7 0
v -6 -7 0
v -6 -6 0
v -5 -6 0
v -6 -7 0
v -7 -7 0
v -7 -6 0
v -6 -6 0
v -7 -7 0
v -8 -7 0
v -8 -6 0
v -7 -6 0
v -8 -7 0
v -9 -7 0
v -9 -6 0
v -8 -6 0
v -9 -7 0
v -10 -7 0
v -10 -6 0
v -9 -6 0
v -10 -7 0
v -11 -7 0
v -11 -6 0
v -10 -6 0
v -11 -7 0
v -12 -7 0
v -12 -6 0
v -11 -6 0
v -12 -7 0
v -13 -7 0
v -13 -6 0
v -12 -6 0
v -13 -7 0
v -14 -7 0
v -14 -6 0
v -13 -6 0
v -14 -7 0
v -15 -7 0
v -15 -6 0
v -14 -6 0
v -2 -8 0
v -3 -8 0
v -3 -7 0
v -2 -7 0
v -3 -8 0
v -4 -8 0
v -4 -7 0
v -3 -7 0
v -4 -8 0
v -5 -8 0
v -5 -7 0
v -4 -7 0
v -5 -8 0
v -6 -8 0
v -6 -7 0
v -5 -7 0
v -6 -8 0
v -7 -8 0
v -7 -7 0
v -6 -7 0
v -7 -8 0
v -8 -8 0
v -8 -7 0
v -7 -7 0
v -8 -8 0
v -9 -8 0
v -9 -7 0
v -8 -7 0
v -9 -8 0
v -10 -8 0
v -10 -7 0
v -9 -7 0
v -10 -8 0
v -11 -8 0
v -11 -7 0
v -10 -7 0
v -11 -8 0
v -12 -8 0
v -12 -7 0
v -11 -7 0
v -12 -8 0
v -13 -8 0
v -13 -7 0
v -12 -7 0
v -13 -8 0
v -14 -8 0
v -14 -7 0
v -13 -7 0
v -14 -8 0
v -15 -8 0
v -15 -7 0
v -14 -7 0
v -2 -9 0
v -3 -9 0
v -3 -8 0
v -2 -8 0
v -3 -9 0
v -4 -9 0
v -4 -8 0
v -3 -8 0
v -4 -9 0
v -5 -9 0
v -5 -8 0
v -4 -8 0
v -5 -9 0
v -6 -9 0
v -6 -8 0
v -5 -8 0
v -6 -9 0
v -7 -9 0
v -7 -8 0
v -6 -8 0
v -7 -9 0
v -8 -9 0
v -8 -8 0
v -7 -8 0
v -8 -9 0
v -9 -9 0
v -9 -8 0
v -8 -8 0
v -9 -9 0
v -10 -9 0
v -10 -8 0
v -9 -8 0
v -10 -9 0
v -11 -9 0
v -11 -8 0
v -10 -8 0
v -11 -9 0
v -12 -9 0
v -12 -8 0
v -11 -8 0
v -12 -9 0
v -13 -9 0
v -13 -8 0
v -12 -8 0
v -13 -9 0
v -14 -9 0
v -14 -8 0
v -13 -8 0
v -14 -9 0
v -15 -9 0
v -15 -8 0
v -14 -8 0
v -5 -10 0
v -6 -10 0
v -6 -9 0
v -5 -9 0
v -6 -10 0
v -7 -10 0
v -7 -9 0
v -6 -9 0
v -7 -10 0
v -8 -10 0
v -8 -9 0
v -7 -9 0
v -8 -10 0
v -9 -10 0
v -9 -9 0
v -8 -9 0
v -9 -10 0
v -10 -10 0
v -10 -9 0
v -9 -9 0
v -5 -11 0
v -6 -11 0
v -6 -10 0
v -5 -10 0
v -6 -11 0
v -7 -11 0
v -7 -10 0
v -6 -10 0
v -7 -11 0
v -8 -11 0
v -8 -10 0
v -7 -10 0
v -8 -11 0
v -9 -11 0
v -9 -10 0
v -8 -10 0
v -9 -11 0
v -10 -11 0
v -10 -10 0
v -9 -10 0
v -5 -12 0
v -6 -12 0
v -6 -11 0
v -5 -11 0
v -6 -12 0
v -7 -12 0
v -7 -11 0
v -6 -11 0
v -7 -12 0
v -8 -12 0
v -8 -11 0
v -7 -11 0
v -8 -12 0
v -9 -12 0
v -9 -11 0
v -8 -11 0
v -9 -12 0
v -10 -12 0
v -10 -11 0
v -9 -11 0
v -5 -13 0
v -6 -13 0
v -6 -12 0
v -5 -12 0
v -6 -13 0
v -7 -13 0
v -7 -12 0
v -6 -12 0
v -7 -13 0
v -8 -13 0
v -8 -12 0
v -7 -12 0
v -8 -13 0
v -9 -13 0
v -9 -12 0
v -8 -12 0
v -9 -13 0
v -10 -13 0
v -10 -12 0
v -9 -12 0
v -5 -14 0
v -6 -14 0
v -6 -13 0
v -5 -13 0
v -6 -14 0
v -7 -14 0
v -7 -13 0
v -6 -13 0
v -7 -14 0
v -8 -14 0
v -8 -13 0
v -7 -13 0
v -8 -14 0
v -9 -14 0
v -9 -13 0
v -8 -13 0
v -9 -14 0
v -10 -14 0
v -10 -13 0
v -9 -13 0
v -5 -15 0
v -6 -15 0
v -6 -14 0
v -5 -14 0
v -6 -15 0
v -7 -15 0
v -7 -14 0
v -6 -14 0
v -7 -15 0
v -8 -15 0
v -8 -14 0
v -7 -14 0
v -8 -15 0
v -9 -15 0
v -9 -14 0
v -8 -14 0
v -9 -15 0
v -10 -15 0
v -10 -14 0
v -9 -14 0

# Texture cooridinates (Count = 24)
vt 0.35 0.1666667
vt 0.375 0.1666667
vt 0.375 0.1944444
vt 0.35 0.1944444
vt 0.4 0.1666667
vt 0.4 0.1944444
vt 0.35 0.1388889
vt 0.375 0.1388889
vt 0.425 0.1388889
vt 0.45 0.1388889
vt 0.45 0.1666667
vt 0.425 0.1666667
vt 0.475 0.1388889
vt 0.475 0.1666667
vt 0.45 0.1944444
vt 0.425 0.1944444
vt 0.475 0.1944444
vt 0.4 0.1388889
vt 0.35 0.1111111
vt 0.375 0.1111111
vt 0.4 0.1111111
vt 0.375 0.08333331
vt 0.4 0.08333331
vt 0.35 0.08333331

# Normal
vn 0 0 -1

# Mesh description
g Pueblo---Casa-Jugador_mesh_0002

# Faces
f 1/1/1 2/2/1 3/3/1 4/4/1
f 5/2/1 6/5/1 7/6/1 8/3/1
f 9/2/1 10/5/1 11/6/1 12/3/1
f 13/2/1 14/5/1 15/6/1 16/3/1
f 17/2/1 18/5/1 19/6/1 20/3/1
f 21/2/1 22/5/1 23/6/1 24/3/1
f 25/2/1 26/5/1 27/6/1 28/3/1
f 29/2/1 30/5/1 31/6/1 32/3/1
f 33/2/1 34/5/1 35/6/1 36/3/1
f 37/2/1 38/5/1 39/6/1 40/3/1
f 41/2/1 42/5/1 43/6/1 44/3/1
f 45/2/1 46/5/1 47/6/1 48/3/1
f 49/2/1 50/5/1 51/6/1 52/3/1
f 53/7/1 54/8/1 55/2/1 56/1/1
f 57/9/1 58/10/1 59/11/1 60/12/1
f 61/10/1 62/13/1 63/14/1 64/11/1
f 65/9/1 66/10/1 67/11/1 68/12/1
f 69/12/1 70/11/1 71/15/1 72/16/1
f 73/11/1 74/14/1 75/17/1 76/15/1
f 77/10/1 78/13/1 79/14/1 80/11/1
f 81/12/1 82/11/1 83/15/1 84/16/1
f 85/11/1 86/14/1 87/17/1 88/15/1
f 89/12/1 90/11/1 91/15/1 92/16/1
f 93/11/1 94/14/1 95/17/1 96/15/1
f 97/12/1 98/11/1 99/15/1 100/16/1
f 101/11/1 102/14/1 103/17/1 104/15/1
f 105/7/1 106/8/1 107/2/1 108/1/1
f 109/11/1 110/14/1 111/17/1 112/15/1
f 113/10/1 114/13/1 115/14/1 116/11/1
f 117/8/1 118/18/1 119/5/1 120/2/1
f 121/11/1 122/14/1 123/17/1 124/15/1
f 125/12/1 126/11/1 127/15/1 128/16/1
f 129/12/1 130/11/1 131/15/1 132/16/1
f 133/8/1 134/18/1 135/5/1 136/2/1
f 137/12/1 138/11/1 139/15/1 140/16/1
f 141/9/1 142/10/1 143/11/1 144/12/1
f 145/8/1 146/18/1 147/5/1 148/2/1
f 149/9/1 150/10/1 151/11/1 152/12/1
f 153/8/1 154/18/1 155/5/1 156/2/1
f 157/7/1 158/8/1 159/2/1 160/1/1
f 161/8/1 162/18/1 163/5/1 164/2/1
f 165/11/1 166/14/1 167/17/1 168/15/1
f 169/9/1 170/10/1 171/11/1 172/12/1
f 173/12/1 174/11/1 175/15/1 176/16/1
f 177/10/1 178/13/1 179/14/1 180/11/1
f 181/12/1 182/11/1 183/15/1 184/16/1
f 185/8/1 186/18/1 187/5/1 188/2/1
f 189/12/1 190/11/1 191/15/1 192/16/1
f 193/8/1 194/18/1 195/5/1 196/2/1
f 197/11/1 198/14/1 199/17/1 200/15/1
f 201/12/1 202/11/1 203/15/1 204/16/1
f 205/8/1 206/18/1 207/5/1 208/2/1
f 209/19/1 210/20/1 211/8/1 212/7/1
f 213/20/1 214/21/1 215/18/1 216/8/1
f 217/20/1 218/21/1 219/18/1 220/8/1
f 221/22/1 222/23/1 223/21/1 224/20/1
f 225/10/1 226/13/1 227/14/1 228/11/1
f 229/9/1 230/10/1 231/11/1 232/12/1
f 233/10/1 234/13/1 235/14/1 236/11/1
f 237/24/1 238/22/1 239/20/1 240/19/1
f 241/20/1 242/21/1 243/18/1 244/8/1
f 245/20/1 246/21/1 247/18/1 248/8/1
f 249/20/1 250/21/1 251/18/1 252/8/1
f 253/20/1 254/21/1 255/18/1 256/8/1
f 257/20/1 258/21/1 259/18/1 260/8/1
f 261/7/1 262/8/1 263/2/1 264/1/1
f 265/11/1 266/14/1 267/17/1 268/15/1
f 269/10/1 270/13/1 271/14/1 272/11/1
f 273/12/1 274/11/1 275/15/1 276/16/1
f 277/18/1 278/9/1 279/12/1 280/5/1
f 281/7/1 282/8/1 283/2/1 284/1/1
f 285/8/1 286/18/1 287/5/1 288/2/1
f 289/9/1 290/10/1 291/11/1 292/12/1
f 293/10/1 294/13/1 295/14/1 296/11/1
f 297/18/1 298/9/1 299/12/1 300/5/1
f 301/7/1 302/8/1 303/2/1 304/1/1
f 305/12/1 306/11/1 307/15/1 308/16/1
f 309/11/1 310/14/1 311/17/1 312/15/1
f 313/10/1 314/13/1 315/14/1 316/11/1
f 317/18/1 318/9/1 319/12/1 320/5/1
f 321/7/1 322/8/1 323/2/1 324/1/1
f 325/8/1 326/18/1 327/5/1 328/2/1
f 329/10/1 330/13/1 331/14/1 332/11/1
f 333/11/1 334/14/1 335/17/1 336/15/1
f 337/18/1 338/9/1 339/12/1 340/5/1
f 341/7/1 342/8/1 343/2/1 344/1/1
f 345/11/1 346/14/1 347/17/1 348/15/1
f 349/9/1 350/10/1 351/11/1 352/12/1
f 353/8/1 354/18/1 355/5/1 356/2/1
f 357/18/1 358/9/1 359/12/1 360/5/1
f 361/7/1 362/8/1 363/2/1 364/1/1
f 365/10/1 366/13/1 367/14/1 368/11/1
f 369/8/1 370/18/1 371/5/1 372/2/1
f 373/11/1 374/14/1 375/17/1 376/15/1
f 377/18/1 378/9/1 379/12/1 380/5/1

