# Tiled2Unity generated file. Do not modify by hand.
# Wavefront file for 'Pueblo---Casa-Jugador_mesh_0003.obj'

# Vertices (Count = 32)
v -3 -10 0
v -4 -10 0
v -4 -9 0
v -3 -9 0
v -4 -10 0
v -5 -10 0
v -5 -9 0
v -4 -9 0
v -3 -11 0
v -4 -11 0
v -4 -10 0
v -3 -10 0
v -4 -11 0
v -5 -11 0
v -5 -10 0
v -4 -10 0
v -3 -12 0
v -4 -12 0
v -4 -11 0
v -3 -11 0
v -4 -12 0
v -5 -12 0
v -5 -11 0
v -4 -11 0
v -3 -13 0
v -4 -13 0
v -4 -12 0
v -3 -12 0
v -4 -13 0
v -5 -13 0
v -5 -12 0
v -4 -12 0

# Texture cooridinates (Count = 9)
vt 0.025 0.02777779
vt 0.05 0.02777779
vt 0.05 0.05555558
vt 0.025 0.05555558
vt 0 0
vt 0.025 0
vt 0 0.02777779
vt 0 0.05555558
vt 0.05 0

# Normal
vn 0 0 -1

# Mesh description
g Pueblo---Casa-Jugador_mesh_0003

# Faces
f 1/1/1 2/2/1 3/3/1 4/4/1
f 5/5/1 6/6/1 7/1/1 8/7/1
f 9/1/1 10/2/1 11/3/1 12/4/1
f 13/5/1 14/6/1 15/1/1 16/7/1
f 17/7/1 18/1/1 19/4/1 20/8/1
f 21/6/1 22/9/1 23/2/1 24/1/1
f 25/7/1 26/1/1 27/4/1 28/8/1
f 29/6/1 30/9/1 31/2/1 32/1/1

