# Tiled2Unity generated file. Do not modify by hand.
# Wavefront file for 'Pueblo---Interior-Casa-Jugador---Piso-2_mesh_0003.obj'

# Vertices (Count = 60)
v -2 -2 0
v -3 -2 0
v -3 -1 0
v -2 -1 0
v -3 -2 0
v -4 -2 0
v -4 -1 0
v -3 -1 0
v -4 -2 0
v -5 -2 0
v -5 -1 0
v -4 -1 0
v -7 -2 0
v -8 -2 0
v -8 -1 0
v -7 -1 0
v -8 -2 0
v -9 -2 0
v -9 -1 0
v -8 -1 0
v -9 -2 0
v -10 -2 0
v -10 -1 0
v -9 -1 0
v -2 -3 0
v -3 -3 0
v -3 -2 0
v -2 -2 0
v -3 -3 0
v -4 -3 0
v -4 -2 0
v -3 -2 0
v -4 -3 0
v -5 -3 0
v -5 -2 0
v -4 -2 0
v -7 -3 0
v -8 -3 0
v -8 -2 0
v -7 -2 0
v -8 -3 0
v -9 -3 0
v -9 -2 0
v -8 -2 0
v -9 -3 0
v -10 -3 0
v -10 -2 0
v -9 -2 0
v -9 -4 0
v -10 -4 0
v -10 -3 0
v -9 -3 0
v -9 -5 0
v -10 -5 0
v -10 -4 0
v -9 -4 0
v -9 -6 0
v -10 -6 0
v -10 -5 0
v -9 -5 0

# Texture cooridinates (Count = 20)
vt 0.075 0.48
vt 0.1 0.48
vt 0.1 0.52
vt 0.075 0.52
vt 0.125 0.48
vt 0.125 0.52
vt 0.15 0.48
vt 0.15 0.52
vt 0.075 0.44
vt 0.1 0.44
vt 0.125 0.44
vt 0.15 0.44
vt 0.45 0.8
vt 0.475 0.8
vt 0.475 0.84
vt 0.45 0.84
vt 0.45 0.76
vt 0.475 0.76
vt 0.45 0.72
vt 0.475 0.72

# Normal
vn 0 0 -1

# Mesh description
g Pueblo---Interior-Casa-Jugador---Piso-2_mesh_0003

# Faces
f 1/1/1 2/2/1 3/3/1 4/4/1
f 5/2/1 6/5/1 7/6/1 8/3/1
f 9/5/1 10/7/1 11/8/1 12/6/1
f 13/1/1 14/2/1 15/3/1 16/4/1
f 17/2/1 18/5/1 19/6/1 20/3/1
f 21/5/1 22/7/1 23/8/1 24/6/1
f 25/9/1 26/10/1 27/2/1 28/1/1
f 29/10/1 30/11/1 31/5/1 32/2/1
f 33/11/1 34/12/1 35/7/1 36/5/1
f 37/9/1 38/10/1 39/2/1 40/1/1
f 41/10/1 42/11/1 43/5/1 44/2/1
f 45/11/1 46/12/1 47/7/1 48/5/1
f 49/13/1 50/14/1 51/15/1 52/16/1
f 53/17/1 54/18/1 55/14/1 56/13/1
f 57/19/1 58/20/1 59/18/1 60/17/1

