# Tiled2Unity generated file. Do not modify by hand.
# Wavefront file for 'Llanuras-del-Origen---Zona-del-Jefe_mesh_0003.obj'

# Vertices (Count = 48)
v -2 -2 0
v -3 -2 0
v -3 -1 0
v -2 -1 0
v -6 -2 0
v -7 -2 0
v -7 -1 0
v -6 -1 0
v -7 -2 0
v -8 -2 0
v -8 -1 0
v -7 -1 0
v -11 -2 0
v -12 -2 0
v -12 -1 0
v -11 -1 0
v -2 -3 0
v -3 -3 0
v -3 -2 0
v -2 -2 0
v -6 -3 0
v -7 -3 0
v -7 -2 0
v -6 -2 0
v -7 -3 0
v -8 -3 0
v -8 -2 0
v -7 -2 0
v -11 -3 0
v -12 -3 0
v -12 -2 0
v -11 -2 0
v -2 -4 0
v -3 -4 0
v -3 -3 0
v -2 -3 0
v -6 -4 0
v -7 -4 0
v -7 -3 0
v -6 -3 0
v -7 -4 0
v -8 -4 0
v -8 -3 0
v -7 -3 0
v -11 -4 0
v -12 -4 0
v -12 -3 0
v -11 -3 0

# Texture cooridinates (Count = 20)
vt 0.225 0.96
vt 0.25 0.96
vt 0.25 1
vt 0.225 1
vt 0.2 0.96
vt 0.2 1
vt 0.175 0.96
vt 0.175 1
vt 0.15 0.96
vt 0.15 1
vt 0.225 0.92
vt 0.25 0.92
vt 0.2 0.92
vt 0.175 0.92
vt 0.15 0.92
vt 0.225 0.88
vt 0.25 0.88
vt 0.2 0.88
vt 0.175 0.88
vt 0.15 0.88

# Normal
vn 0 0 -1

# Mesh description
g Llanuras-del-Origen---Zona-del-Jefe_mesh_0003

# Faces
f 1/1/1 2/2/1 3/3/1 4/4/1
f 5/5/1 6/1/1 7/4/1 8/6/1
f 9/7/1 10/5/1 11/6/1 12/8/1
f 13/9/1 14/7/1 15/8/1 16/10/1
f 17/11/1 18/12/1 19/2/1 20/1/1
f 21/13/1 22/11/1 23/1/1 24/5/1
f 25/14/1 26/13/1 27/5/1 28/7/1
f 29/15/1 30/14/1 31/7/1 32/9/1
f 33/16/1 34/17/1 35/12/1 36/11/1
f 37/18/1 38/16/1 39/11/1 40/13/1
f 41/19/1 42/18/1 43/13/1 44/14/1
f 45/20/1 46/19/1 47/14/1 48/15/1

