# Tiled2Unity generated file. Do not modify by hand.
# Wavefront file for 'Pueblo---Interior-Casa-Jugador---Piso-1_mesh_0007.obj'

# Vertices (Count = 120)
v -4 -1 0
v -5 -1 0
v -5 0 0
v -4 0 0
v -5 -1 0
v -6 -1 0
v -6 0 0
v -5 0 0
v -6 -1 0
v -7 -1 0
v -7 0 0
v -6 0 0
v -7 -1 0
v -8 -1 0
v -8 0 0
v -7 0 0
v -8 -1 0
v -9 -1 0
v -9 0 0
v -8 0 0
v -9 -1 0
v -10 -1 0
v -10 0 0
v -9 0 0
v -10 -1 0
v -11 -1 0
v -11 0 0
v -10 0 0
v -4 -2 0
v -5 -2 0
v -5 -1 0
v -4 -1 0
v -5 -2 0
v -6 -2 0
v -6 -1 0
v -5 -1 0
v -6 -2 0
v -7 -2 0
v -7 -1 0
v -6 -1 0
v -7 -2 0
v -8 -2 0
v -8 -1 0
v -7 -1 0
v -8 -2 0
v -9 -2 0
v -9 -1 0
v -8 -1 0
v -9 -2 0
v -10 -2 0
v -10 -1 0
v -9 -1 0
v -4 -3 0
v -5 -3 0
v -5 -2 0
v -4 -2 0
v -5 -3 0
v -6 -3 0
v -6 -2 0
v -5 -2 0
v -6 -3 0
v -7 -3 0
v -7 -2 0
v -6 -2 0
v -8 -3 0
v -9 -3 0
v -9 -2 0
v -8 -2 0
v -9 -3 0
v -10 -3 0
v -10 -2 0
v -9 -2 0
v -8 -4 0
v -9 -4 0
v -9 -3 0
v -8 -3 0
v -9 -4 0
v -10 -4 0
v -10 -3 0
v -9 -3 0
v -9 -5 0
v -10 -5 0
v -10 -4 0
v -9 -4 0
v -9 -6 0
v -10 -6 0
v -10 -5 0
v -9 -5 0
v -9 -7 0
v -10 -7 0
v -10 -6 0
v -9 -6 0
v -2 -8 0
v -3 -8 0
v -3 -7 0
v -2 -7 0
v -3 -8 0
v -4 -8 0
v -4 -7 0
v -3 -7 0
v -9 -8 0
v -10 -8 0
v -10 -7 0
v -9 -7 0
v -7 -9 0
v -8 -9 0
v -8 -8 0
v -7 -8 0
v -9 -9 0
v -10 -9 0
v -10 -8 0
v -9 -8 0
v -7 -10 0
v -8 -10 0
v -8 -9 0
v -7 -9 0
v -9 -10 0
v -10 -10 0
v -10 -9 0
v -9 -9 0

# Texture cooridinates (Count = 49)
vt 0.325 0.36
vt 0.35 0.36
vt 0.35 0.4
vt 0.325 0.4
vt 0.3 0.56
vt 0.325 0.56
vt 0.325 0.6
vt 0.3 0.6
vt 0.35 0.56
vt 0.35 0.6
vt 0.3 0.52
vt 0.325 0.52
vt 0.35 0.52
vt 0.5 0.92
vt 0.525 0.92
vt 0.525 0.96
vt 0.5 0.96
vt 0.55 0.92
vt 0.55 0.96
vt 0.225 0.36
vt 0.25 0.36
vt 0.25 0.4
vt 0.225 0.4
vt 0.25 0.48
vt 0.275 0.48
vt 0.275 0.52
vt 0.25 0.52
vt 0.3 0.48
vt 0.5 0.88
vt 0.525 0.88
vt 0.55 0.88
vt 0.5 0.84
vt 0.525 0.84
vt 0.55 0.84
vt 0.175 0.48
vt 0.2 0.48
vt 0.2 0.52
vt 0.175 0.52
vt 0.175 0.44
vt 0.2 0.44
vt 0.175 0.4
vt 0.2 0.4
vt 0.275 0.4
vt 0.275 0.44
vt 0.25 0.44
vt 0.175 0.36
vt 0.2 0.36
vt 0.175 0.32
vt 0.2 0.32

# Normal
vn 0 0 -1

# Mesh description
g Pueblo---Interior-Casa-Jugador---Piso-1_mesh_0007

# Faces
f 1/1/1 2/2/1 3/3/1 4/4/1
f 5/5/1 6/6/1 7/7/1 8/8/1
f 9/6/1 10/9/1 11/10/1 12/7/1
f 13/1/1 14/2/1 15/3/1 16/4/1
f 17/1/1 18/2/1 19/3/1 20/4/1
f 21/1/1 22/2/1 23/3/1 24/4/1
f 25/1/1 26/2/1 27/3/1 28/4/1
f 29/1/1 30/2/1 31/3/1 32/4/1
f 33/11/1 34/12/1 35/6/1 36/5/1
f 37/12/1 38/13/1 39/9/1 40/6/1
f 41/1/1 42/2/1 43/3/1 44/4/1
f 45/14/1 46/15/1 47/16/1 48/17/1
f 49/15/1 50/18/1 51/19/1 52/16/1
f 53/20/1 54/21/1 55/22/1 56/23/1
f 57/24/1 58/25/1 59/26/1 60/27/1
f 61/25/1 62/28/1 63/11/1 64/26/1
f 65/29/1 66/30/1 67/15/1 68/14/1
f 69/30/1 70/31/1 71/18/1 72/15/1
f 73/32/1 74/33/1 75/30/1 76/29/1
f 77/33/1 78/34/1 79/31/1 80/30/1
f 81/35/1 82/36/1 83/37/1 84/38/1
f 85/39/1 86/40/1 87/36/1 88/35/1
f 89/41/1 90/42/1 91/40/1 92/39/1
f 93/22/1 94/43/1 95/44/1 96/45/1
f 97/22/1 98/43/1 99/44/1 100/45/1
f 101/46/1 102/47/1 103/42/1 104/41/1
f 105/1/1 106/2/1 107/3/1 108/4/1
f 109/48/1 110/49/1 111/47/1 112/46/1
f 113/1/1 114/2/1 115/3/1 116/4/1
f 117/48/1 118/49/1 119/47/1 120/46/1

