# Tiled2Unity generated file. Do not modify by hand.
# Wavefront file for 'Pueblo---Interior-Casa-Jugador---Piso-1_mesh_0001.obj'

# Vertices (Count = 576)
v 0 -1 0
v -1 -1 0
v -1 0 0
v 0 0 0
v -1 -1 0
v -2 -1 0
v -2 0 0
v -1 0 0
v -2 -1 0
v -3 -1 0
v -3 0 0
v -2 0 0
v -3 -1 0
v -4 -1 0
v -4 0 0
v -3 0 0
v -4 -1 0
v -5 -1 0
v -5 0 0
v -4 0 0
v -5 -1 0
v -6 -1 0
v -6 0 0
v -5 0 0
v -6 -1 0
v -7 -1 0
v -7 0 0
v -6 0 0
v -7 -1 0
v -8 -1 0
v -8 0 0
v -7 0 0
v -8 -1 0
v -9 -1 0
v -9 0 0
v -8 0 0
v -9 -1 0
v -10 -1 0
v -10 0 0
v -9 0 0
v -10 -1 0
v -11 -1 0
v -11 0 0
v -10 0 0
v -11 -1 0
v -12 -1 0
v -12 0 0
v -11 0 0
v 0 -2 0
v -1 -2 0
v -1 -1 0
v 0 -1 0
v -1 -2 0
v -2 -2 0
v -2 -1 0
v -1 -1 0
v -2 -2 0
v -3 -2 0
v -3 -1 0
v -2 -1 0
v -3 -2 0
v -4 -2 0
v -4 -1 0
v -3 -1 0
v -4 -2 0
v -5 -2 0
v -5 -1 0
v -4 -1 0
v -5 -2 0
v -6 -2 0
v -6 -1 0
v -5 -1 0
v -6 -2 0
v -7 -2 0
v -7 -1 0
v -6 -1 0
v -7 -2 0
v -8 -2 0
v -8 -1 0
v -7 -1 0
v -8 -2 0
v -9 -2 0
v -9 -1 0
v -8 -1 0
v -9 -2 0
v -10 -2 0
v -10 -1 0
v -9 -1 0
v -10 -2 0
v -11 -2 0
v -11 -1 0
v -10 -1 0
v -11 -2 0
v -12 -2 0
v -12 -1 0
v -11 -1 0
v 0 -3 0
v -1 -3 0
v -1 -2 0
v 0 -2 0
v -1 -3 0
v -2 -3 0
v -2 -2 0
v -1 -2 0
v -2 -3 0
v -3 -3 0
v -3 -2 0
v -2 -2 0
v -3 -3 0
v -4 -3 0
v -4 -2 0
v -3 -2 0
v -4 -3 0
v -5 -3 0
v -5 -2 0
v -4 -2 0
v -5 -3 0
v -6 -3 0
v -6 -2 0
v -5 -2 0
v -6 -3 0
v -7 -3 0
v -7 -2 0
v -6 -2 0
v -7 -3 0
v -8 -3 0
v -8 -2 0
v -7 -2 0
v -8 -3 0
v -9 -3 0
v -9 -2 0
v -8 -2 0
v -9 -3 0
v -10 -3 0
v -10 -2 0
v -9 -2 0
v -10 -3 0
v -11 -3 0
v -11 -2 0
v -10 -2 0
v -11 -3 0
v -12 -3 0
v -12 -2 0
v -11 -2 0
v 0 -4 0
v -1 -4 0
v -1 -3 0
v 0 -3 0
v -1 -4 0
v -2 -4 0
v -2 -3 0
v -1 -3 0
v -2 -4 0
v -3 -4 0
v -3 -3 0
v -2 -3 0
v -3 -4 0
v -4 -4 0
v -4 -3 0
v -3 -3 0
v -4 -4 0
v -5 -4 0
v -5 -3 0
v -4 -3 0
v -5 -4 0
v -6 -4 0
v -6 -3 0
v -5 -3 0
v -6 -4 0
v -7 -4 0
v -7 -3 0
v -6 -3 0
v -7 -4 0
v -8 -4 0
v -8 -3 0
v -7 -3 0
v -8 -4 0
v -9 -4 0
v -9 -3 0
v -8 -3 0
v -9 -4 0
v -10 -4 0
v -10 -3 0
v -9 -3 0
v -10 -4 0
v -11 -4 0
v -11 -3 0
v -10 -3 0
v -11 -4 0
v -12 -4 0
v -12 -3 0
v -11 -3 0
v 0 -5 0
v -1 -5 0
v -1 -4 0
v 0 -4 0
v -1 -5 0
v -2 -5 0
v -2 -4 0
v -1 -4 0
v -2 -5 0
v -3 -5 0
v -3 -4 0
v -2 -4 0
v -3 -5 0
v -4 -5 0
v -4 -4 0
v -3 -4 0
v -4 -5 0
v -5 -5 0
v -5 -4 0
v -4 -4 0
v -5 -5 0
v -6 -5 0
v -6 -4 0
v -5 -4 0
v -6 -5 0
v -7 -5 0
v -7 -4 0
v -6 -4 0
v -7 -5 0
v -8 -5 0
v -8 -4 0
v -7 -4 0
v -8 -5 0
v -9 -5 0
v -9 -4 0
v -8 -4 0
v -9 -5 0
v -10 -5 0
v -10 -4 0
v -9 -4 0
v -10 -5 0
v -11 -5 0
v -11 -4 0
v -10 -4 0
v -11 -5 0
v -12 -5 0
v -12 -4 0
v -11 -4 0
v 0 -6 0
v -1 -6 0
v -1 -5 0
v 0 -5 0
v -1 -6 0
v -2 -6 0
v -2 -5 0
v -1 -5 0
v -2 -6 0
v -3 -6 0
v -3 -5 0
v -2 -5 0
v -3 -6 0
v -4 -6 0
v -4 -5 0
v -3 -5 0
v -4 -6 0
v -5 -6 0
v -5 -5 0
v -4 -5 0
v -5 -6 0
v -6 -6 0
v -6 -5 0
v -5 -5 0
v -6 -6 0
v -7 -6 0
v -7 -5 0
v -6 -5 0
v -7 -6 0
v -8 -6 0
v -8 -5 0
v -7 -5 0
v -8 -6 0
v -9 -6 0
v -9 -5 0
v -8 -5 0
v -9 -6 0
v -10 -6 0
v -10 -5 0
v -9 -5 0
v -10 -6 0
v -11 -6 0
v -11 -5 0
v -10 -5 0
v -11 -6 0
v -12 -6 0
v -12 -5 0
v -11 -5 0
v 0 -7 0
v -1 -7 0
v -1 -6 0
v 0 -6 0
v -1 -7 0
v -2 -7 0
v -2 -6 0
v -1 -6 0
v -2 -7 0
v -3 -7 0
v -3 -6 0
v -2 -6 0
v -3 -7 0
v -4 -7 0
v -4 -6 0
v -3 -6 0
v -4 -7 0
v -5 -7 0
v -5 -6 0
v -4 -6 0
v -5 -7 0
v -6 -7 0
v -6 -6 0
v -5 -6 0
v -6 -7 0
v -7 -7 0
v -7 -6 0
v -6 -6 0
v -7 -7 0
v -8 -7 0
v -8 -6 0
v -7 -6 0
v -8 -7 0
v -9 -7 0
v -9 -6 0
v -8 -6 0
v -9 -7 0
v -10 -7 0
v -10 -6 0
v -9 -6 0
v -10 -7 0
v -11 -7 0
v -11 -6 0
v -10 -6 0
v -11 -7 0
v -12 -7 0
v -12 -6 0
v -11 -6 0
v 0 -8 0
v -1 -8 0
v -1 -7 0
v 0 -7 0
v -1 -8 0
v -2 -8 0
v -2 -7 0
v -1 -7 0
v -2 -8 0
v -3 -8 0
v -3 -7 0
v -2 -7 0
v -3 -8 0
v -4 -8 0
v -4 -7 0
v -3 -7 0
v -4 -8 0
v -5 -8 0
v -5 -7 0
v -4 -7 0
v -5 -8 0
v -6 -8 0
v -6 -7 0
v -5 -7 0
v -6 -8 0
v -7 -8 0
v -7 -7 0
v -6 -7 0
v -7 -8 0
v -8 -8 0
v -8 -7 0
v -7 -7 0
v -8 -8 0
v -9 -8 0
v -9 -7 0
v -8 -7 0
v -9 -8 0
v -10 -8 0
v -10 -7 0
v -9 -7 0
v -10 -8 0
v -11 -8 0
v -11 -7 0
v -10 -7 0
v -11 -8 0
v -12 -8 0
v -12 -7 0
v -11 -7 0
v 0 -9 0
v -1 -9 0
v -1 -8 0
v 0 -8 0
v -1 -9 0
v -2 -9 0
v -2 -8 0
v -1 -8 0
v -2 -9 0
v -3 -9 0
v -3 -8 0
v -2 -8 0
v -3 -9 0
v -4 -9 0
v -4 -8 0
v -3 -8 0
v -4 -9 0
v -5 -9 0
v -5 -8 0
v -4 -8 0
v -5 -9 0
v -6 -9 0
v -6 -8 0
v -5 -8 0
v -6 -9 0
v -7 -9 0
v -7 -8 0
v -6 -8 0
v -7 -9 0
v -8 -9 0
v -8 -8 0
v -7 -8 0
v -8 -9 0
v -9 -9 0
v -9 -8 0
v -8 -8 0
v -9 -9 0
v -10 -9 0
v -10 -8 0
v -9 -8 0
v -10 -9 0
v -11 -9 0
v -11 -8 0
v -10 -8 0
v -11 -9 0
v -12 -9 0
v -12 -8 0
v -11 -8 0
v 0 -10 0
v -1 -10 0
v -1 -9 0
v 0 -9 0
v -1 -10 0
v -2 -10 0
v -2 -9 0
v -1 -9 0
v -2 -10 0
v -3 -10 0
v -3 -9 0
v -2 -9 0
v -3 -10 0
v -4 -10 0
v -4 -9 0
v -3 -9 0
v -4 -10 0
v -5 -10 0
v -5 -9 0
v -4 -9 0
v -5 -10 0
v -6 -10 0
v -6 -9 0
v -5 -9 0
v -6 -10 0
v -7 -10 0
v -7 -9 0
v -6 -9 0
v -7 -10 0
v -8 -10 0
v -8 -9 0
v -7 -9 0
v -8 -10 0
v -9 -10 0
v -9 -9 0
v -8 -9 0
v -9 -10 0
v -10 -10 0
v -10 -9 0
v -9 -9 0
v -10 -10 0
v -11 -10 0
v -11 -9 0
v -10 -9 0
v -11 -10 0
v -12 -10 0
v -12 -9 0
v -11 -9 0
v 0 -11 0
v -1 -11 0
v -1 -10 0
v 0 -10 0
v -1 -11 0
v -2 -11 0
v -2 -10 0
v -1 -10 0
v -2 -11 0
v -3 -11 0
v -3 -10 0
v -2 -10 0
v -3 -11 0
v -4 -11 0
v -4 -10 0
v -3 -10 0
v -4 -11 0
v -5 -11 0
v -5 -10 0
v -4 -10 0
v -5 -11 0
v -6 -11 0
v -6 -10 0
v -5 -10 0
v -6 -11 0
v -7 -11 0
v -7 -10 0
v -6 -10 0
v -7 -11 0
v -8 -11 0
v -8 -10 0
v -7 -10 0
v -8 -11 0
v -9 -11 0
v -9 -10 0
v -8 -10 0
v -9 -11 0
v -10 -11 0
v -10 -10 0
v -9 -10 0
v -10 -11 0
v -11 -11 0
v -11 -10 0
v -10 -10 0
v -11 -11 0
v -12 -11 0
v -12 -10 0
v -11 -10 0
v 0 -12 0
v -1 -12 0
v -1 -11 0
v 0 -11 0
v -1 -12 0
v -2 -12 0
v -2 -11 0
v -1 -11 0
v -2 -12 0
v -3 -12 0
v -3 -11 0
v -2 -11 0
v -3 -12 0
v -4 -12 0
v -4 -11 0
v -3 -11 0
v -4 -12 0
v -5 -12 0
v -5 -11 0
v -4 -11 0
v -5 -12 0
v -6 -12 0
v -6 -11 0
v -5 -11 0
v -6 -12 0
v -7 -12 0
v -7 -11 0
v -6 -11 0
v -7 -12 0
v -8 -12 0
v -8 -11 0
v -7 -11 0
v -8 -12 0
v -9 -12 0
v -9 -11 0
v -8 -11 0
v -9 -12 0
v -10 -12 0
v -10 -11 0
v -9 -11 0
v -10 -12 0
v -11 -12 0
v -11 -11 0
v -10 -11 0
v -11 -12 0
v -12 -12 0
v -12 -11 0
v -11 -11 0

# Texture cooridinates (Count = 21)
vt 0.05 0.92
vt 0.075 0.92
vt 0.075 0.96
vt 0.05 0.96
vt 0.1 0.96
vt 0.125 0.96
vt 0.125 1
vt 0.1 1
vt 0.05 0.88
vt 0.075 0.88
vt 0.15 0.96
vt 0.15 1
vt 0.1 0.92
vt 0 0.92
vt 0.025 0.92
vt 0.025 0.96
vt 0 0.96
vt 0.125 0.92
vt 0.075 1
vt 0.05 1
vt 0.15 0.92

# Normal
vn 0 0 -1

# Mesh description
g Pueblo---Interior-Casa-Jugador---Piso-1_mesh_0001

# Faces
f 1/1/1 2/2/1 3/3/1 4/4/1
f 5/1/1 6/2/1 7/3/1 8/4/1
f 9/1/1 10/2/1 11/3/1 12/4/1
f 13/1/1 14/2/1 15/3/1 16/4/1
f 17/1/1 18/2/1 19/3/1 20/4/1
f 21/1/1 22/2/1 23/3/1 24/4/1
f 25/1/1 26/2/1 27/3/1 28/4/1
f 29/1/1 30/2/1 31/3/1 32/4/1
f 33/1/1 34/2/1 35/3/1 36/4/1
f 37/1/1 38/2/1 39/3/1 40/4/1
f 41/1/1 42/2/1 43/3/1 44/4/1
f 45/1/1 46/2/1 47/3/1 48/4/1
f 49/1/1 50/2/1 51/3/1 52/4/1
f 53/5/1 54/6/1 55/7/1 56/8/1
f 57/9/1 58/10/1 59/2/1 60/1/1
f 61/9/1 62/10/1 63/2/1 64/1/1
f 65/9/1 66/10/1 67/2/1 68/1/1
f 69/9/1 70/10/1 71/2/1 72/1/1
f 73/9/1 74/10/1 75/2/1 76/1/1
f 77/9/1 78/10/1 79/2/1 80/1/1
f 81/9/1 82/10/1 83/2/1 84/1/1
f 85/9/1 86/10/1 87/2/1 88/1/1
f 89/6/1 90/11/1 91/12/1 92/7/1
f 93/1/1 94/2/1 95/3/1 96/4/1
f 97/1/1 98/2/1 99/3/1 100/4/1
f 101/2/1 102/13/1 103/5/1 104/3/1
f 105/14/1 106/15/1 107/16/1 108/17/1
f 109/14/1 110/15/1 111/16/1 112/17/1
f 113/14/1 114/15/1 115/16/1 116/17/1
f 117/14/1 118/15/1 119/16/1 120/17/1
f 121/14/1 122/15/1 123/16/1 124/17/1
f 125/14/1 126/15/1 127/16/1 128/17/1
f 129/14/1 130/15/1 131/16/1 132/17/1
f 133/14/1 134/15/1 135/16/1 136/17/1
f 137/15/1 138/1/1 139/4/1 140/16/1
f 141/1/1 142/2/1 143/3/1 144/4/1
f 145/1/1 146/2/1 147/3/1 148/4/1
f 149/2/1 150/13/1 151/5/1 152/3/1
f 153/14/1 154/15/1 155/16/1 156/17/1
f 157/14/1 158/15/1 159/16/1 160/17/1
f 161/14/1 162/15/1 163/16/1 164/17/1
f 165/14/1 166/15/1 167/16/1 168/17/1
f 169/14/1 170/15/1 171/16/1 172/17/1
f 173/14/1 174/15/1 175/16/1 176/17/1
f 177/14/1 178/15/1 179/16/1 180/17/1
f 181/14/1 182/15/1 183/16/1 184/17/1
f 185/15/1 186/1/1 187/4/1 188/16/1
f 189/1/1 190/2/1 191/3/1 192/4/1
f 193/1/1 194/2/1 195/3/1 196/4/1
f 197/2/1 198/13/1 199/5/1 200/3/1
f 201/14/1 202/15/1 203/16/1 204/17/1
f 205/14/1 206/15/1 207/16/1 208/17/1
f 209/14/1 210/15/1 211/16/1 212/17/1
f 213/14/1 214/15/1 215/16/1 216/17/1
f 217/14/1 218/15/1 219/16/1 220/17/1
f 221/14/1 222/15/1 223/16/1 224/17/1
f 225/14/1 226/15/1 227/16/1 228/17/1
f 229/14/1 230/15/1 231/16/1 232/17/1
f 233/15/1 234/1/1 235/4/1 236/16/1
f 237/1/1 238/2/1 239/3/1 240/4/1
f 241/1/1 242/2/1 243/3/1 244/4/1
f 245/2/1 246/13/1 247/5/1 248/3/1
f 249/14/1 250/15/1 251/16/1 252/17/1
f 253/14/1 254/15/1 255/16/1 256/17/1
f 257/14/1 258/15/1 259/16/1 260/17/1
f 261/14/1 262/15/1 263/16/1 264/17/1
f 265/14/1 266/15/1 267/16/1 268/17/1
f 269/14/1 270/15/1 271/16/1 272/17/1
f 273/14/1 274/15/1 275/16/1 276/17/1
f 277/14/1 278/15/1 279/16/1 280/17/1
f 281/15/1 282/1/1 283/4/1 284/16/1
f 285/1/1 286/2/1 287/3/1 288/4/1
f 289/1/1 290/2/1 291/3/1 292/4/1
f 293/2/1 294/13/1 295/5/1 296/3/1
f 297/14/1 298/15/1 299/16/1 300/17/1
f 301/14/1 302/15/1 303/16/1 304/17/1
f 305/14/1 306/15/1 307/16/1 308/17/1
f 309/14/1 310/15/1 311/16/1 312/17/1
f 313/14/1 314/15/1 315/16/1 316/17/1
f 317/14/1 318/15/1 319/16/1 320/17/1
f 321/14/1 322/15/1 323/16/1 324/17/1
f 325/14/1 326/15/1 327/16/1 328/17/1
f 329/15/1 330/1/1 331/4/1 332/16/1
f 333/1/1 334/2/1 335/3/1 336/4/1
f 337/1/1 338/2/1 339/3/1 340/4/1
f 341/2/1 342/13/1 343/5/1 344/3/1
f 345/14/1 346/15/1 347/16/1 348/17/1
f 349/14/1 350/15/1 351/16/1 352/17/1
f 353/14/1 354/15/1 355/16/1 356/17/1
f 357/14/1 358/15/1 359/16/1 360/17/1
f 361/14/1 362/15/1 363/16/1 364/17/1
f 365/14/1 366/15/1 367/16/1 368/17/1
f 369/14/1 370/15/1 371/16/1 372/17/1
f 373/14/1 374/15/1 375/16/1 376/17/1
f 377/15/1 378/1/1 379/4/1 380/16/1
f 381/1/1 382/2/1 383/3/1 384/4/1
f 385/1/1 386/2/1 387/3/1 388/4/1
f 389/2/1 390/13/1 391/5/1 392/3/1
f 393/14/1 394/15/1 395/16/1 396/17/1
f 397/14/1 398/15/1 399/16/1 400/17/1
f 401/14/1 402/15/1 403/16/1 404/17/1
f 405/14/1 406/15/1 407/16/1 408/17/1
f 409/14/1 410/15/1 411/16/1 412/17/1
f 413/14/1 414/15/1 415/16/1 416/17/1
f 417/14/1 418/15/1 419/16/1 420/17/1
f 421/14/1 422/15/1 423/16/1 424/17/1
f 425/15/1 426/1/1 427/4/1 428/16/1
f 429/1/1 430/2/1 431/3/1 432/4/1
f 433/1/1 434/2/1 435/3/1 436/4/1
f 437/2/1 438/13/1 439/5/1 440/3/1
f 441/14/1 442/15/1 443/16/1 444/17/1
f 445/14/1 446/15/1 447/16/1 448/17/1
f 449/14/1 450/15/1 451/16/1 452/17/1
f 453/14/1 454/15/1 455/16/1 456/17/1
f 457/14/1 458/15/1 459/16/1 460/17/1
f 461/14/1 462/15/1 463/16/1 464/17/1
f 465/14/1 466/15/1 467/16/1 468/17/1
f 469/14/1 470/15/1 471/16/1 472/17/1
f 473/15/1 474/1/1 475/4/1 476/16/1
f 477/1/1 478/2/1 479/3/1 480/4/1
f 481/1/1 482/2/1 483/3/1 484/4/1
f 485/13/1 486/18/1 487/6/1 488/5/1
f 489/4/1 490/3/1 491/19/1 492/20/1
f 493/4/1 494/3/1 495/19/1 496/20/1
f 497/4/1 498/3/1 499/19/1 500/20/1
f 501/4/1 502/3/1 503/19/1 504/20/1
f 505/4/1 506/3/1 507/19/1 508/20/1
f 509/4/1 510/3/1 511/19/1 512/20/1
f 513/4/1 514/3/1 515/19/1 516/20/1
f 517/4/1 518/3/1 519/19/1 520/20/1
f 521/18/1 522/21/1 523/11/1 524/6/1
f 525/1/1 526/2/1 527/3/1 528/4/1
f 529/1/1 530/2/1 531/3/1 532/4/1
f 533/1/1 534/2/1 535/3/1 536/4/1
f 537/1/1 538/2/1 539/3/1 540/4/1
f 541/1/1 542/2/1 543/3/1 544/4/1
f 545/1/1 546/2/1 547/3/1 548/4/1
f 549/1/1 550/2/1 551/3/1 552/4/1
f 553/1/1 554/2/1 555/3/1 556/4/1
f 557/1/1 558/2/1 559/3/1 560/4/1
f 561/1/1 562/2/1 563/3/1 564/4/1
f 565/1/1 566/2/1 567/3/1 568/4/1
f 569/1/1 570/2/1 571/3/1 572/4/1
f 573/1/1 574/2/1 575/3/1 576/4/1

